<svg xmlns="http://www.w3.org/2000/svg" width="148" height="28" viewBox="0 0 148 28">
    <path fill="#FFF" d="M23.886 4.1c4.602 4.606 5.366 11.702 2.092 17.124-.073.205-.192.397-.355.56-.596.596-1.562.596-2.158 0-.596-.596-.596-1.562 0-2.159 2.534-4.26 1.92-9.81-1.685-13.417-4.301-4.304-11.274-4.304-15.576 0-4.3 4.304-4.3 11.28 0 15.585 3.605 3.607 9.152 4.221 13.409 1.687.595-.596 1.562-.596 2.158 0 .595.595.595 1.562 0 2.159-.165.164-.357.282-.562.357C15.791 29.27 8.7 28.506 4.098 23.9c-5.464-5.468-5.464-14.333 0-19.8 5.464-5.468 14.324-5.468 19.788 0zM13.99 5.834c4.505 0 8.162 3.66 8.162 8.167s-3.657 8.167-8.162 8.167c-4.505 0-8.162-3.66-8.162-8.167 0-4.508 3.657-8.167 8.162-8.167zM59.57 9.917c1.727 0 3.038.416 3.957 1.225.896.831 1.355 2.078 1.355 3.74v6.847h-2.58v-1.421c-.327.503-.808.896-1.42 1.159-.635.284-1.378.416-2.252.416-.875 0-1.64-.154-2.296-.46-.656-.284-1.158-.7-1.508-1.247-.372-.525-.547-1.115-.547-1.793 0-1.05.394-1.904 1.18-2.538.766-.634 1.99-.94 3.674-.94h3.016v-.176c0-.809-.24-1.443-.721-1.88-.503-.438-1.224-.657-2.186-.657-.656 0-1.29.11-1.924.306-.634.197-1.18.481-1.618.853l-1.071-1.99c.612-.46 1.355-.832 2.208-1.072.853-.24 1.77-.372 2.733-.372zm11.914-2.45v2.669h3.126v2.187h-3.126v5.556c0 .57.131 1.007.416 1.291.284.306.677.46 1.202.46.612 0 1.115-.154 1.53-.482l.766 1.947c-.328.263-.7.46-1.16.59-.458.132-.961.198-1.464.198-1.29 0-2.273-.329-2.973-1.007-.7-.678-1.05-1.64-1.05-2.931v-5.622h-1.923v-2.187h1.924V7.467h2.732zm10.625 2.45c1.727 0 3.039.416 3.957 1.225.896.831 1.356 2.078 1.356 3.74v6.847h-2.58v-1.421c-.328.503-.809.896-1.421 1.159-.634.284-1.377.416-2.252.416-.874 0-1.64-.154-2.295-.46-.656-.284-1.159-.7-1.509-1.247-.371-.525-.546-1.115-.546-1.793 0-1.05.393-1.904 1.18-2.538.765-.634 1.99-.94 3.673-.94h3.017v-.176c0-.809-.24-1.443-.722-1.88-.502-.438-1.224-.657-2.186-.657-.656 0-1.29.11-1.924.306-.634.197-1.18.481-1.617.853l-1.072-1.99c.613-.46 1.356-.832 2.208-1.072.853-.24 1.771-.372 2.733-.372zm37.012 0c1.137 0 2.164.24 3.06.744.897.503 1.596 1.225 2.1 2.122.48.918.743 1.968.743 3.171l-.01.27c-.008.151-.021.33-.034.54h-9.16c.153.853.59 1.531 1.268 2.034.677.503 1.508.766 2.514.766 1.29 0 2.339-.416 3.17-1.269l1.465 1.684c-.525.635-1.181 1.094-1.99 1.422-.809.328-1.705.482-2.71.482-1.29 0-2.406-.263-3.39-.766-.983-.503-1.726-1.225-2.251-2.144-.547-.897-.809-1.925-.809-3.084 0-1.138.262-2.166.787-3.085.503-.896 1.224-1.618 2.143-2.121.918-.504 1.945-.766 3.104-.766zm13.598 0c1.136 0 2.164.24 3.06.744.897.503 1.596 1.225 2.099 2.122.481.918.743 1.968.743 3.171 0 .197-.022.46-.043.81h-9.16c.153.853.59 1.531 1.268 2.034.677.503 1.508.766 2.514.766 1.29 0 2.339-.416 3.17-1.269l1.464 1.684c-.524.635-1.18 1.094-1.99 1.422-.808.328-1.704.482-2.71.482-1.29 0-2.405-.263-3.388-.766-.984-.503-1.728-1.225-2.252-2.144-.547-.897-.81-1.925-.81-3.084 0-1.138.263-2.166.788-3.085.503-.896 1.224-1.618 2.142-2.121.919-.504 1.946-.766 3.105-.766zm-88.715-3.5c1.64 0 3.083.306 4.35.94 1.269.657 2.252 1.532 2.952 2.691.7 1.16 1.05 2.516 1.05 4.025 0 1.51-.35 2.844-1.05 4.003-.7 1.16-1.683 2.057-2.951 2.69-1.268.635-2.711.963-4.35.963h-6.69V6.417h6.69zm61.65 3.5c1.465 0 2.645.416 3.498 1.269.853.875 1.29 2.143 1.29 3.85v6.693h-2.733v-6.343c0-1.028-.219-1.794-.678-2.32-.459-.502-1.093-.765-1.945-.765-.919 0-1.662.307-2.208.897-.547.613-.831 1.488-.831 2.603v5.928h-2.733v-6.343c0-1.028-.218-1.794-.677-2.32-.46-.502-1.094-.765-1.946-.765-.94 0-1.662.307-2.208.897-.547.59-.83 1.466-.83 2.603v5.928h-2.734V10.05h2.602v1.487c.437-.525.984-.919 1.64-1.203.655-.285 1.377-.416 2.186-.416.874 0 1.661.153 2.339.481.678.35 1.202.831 1.596 1.466.48-.613 1.093-1.094 1.858-1.444.765-.328 1.596-.503 2.514-.503zm42.346 0v2.603c-.24-.044-.437-.066-.634-.066-1.071 0-1.902.307-2.492.92-.59.634-.897 1.53-.897 2.69v5.665h-2.732V10.05h2.601v1.705c.787-1.225 2.165-1.837 4.154-1.837zM62.15 16.72h-2.82c-1.575 0-2.362.525-2.362 1.553 0 .503.197.897.59 1.181.394.285.94.438 1.64.438.678 0 1.29-.153 1.836-.481.525-.307.897-.744 1.115-1.335V16.72zm22.539 0h-2.82c-1.574 0-2.361.525-2.361 1.553 0 .503.196.897.59 1.181.393.285.94.438 1.64.438.677 0 1.29-.153 1.836-.481.525-.307.896-.744 1.115-1.335V16.72zM43.873 8.823h-3.716v10.5h3.716c1.115 0 2.12-.219 2.973-.656.831-.416 1.509-1.028 1.968-1.838.459-.787.678-1.706.678-2.756 0-1.05-.22-1.969-.678-2.778-.46-.787-1.137-1.4-1.968-1.837-.852-.416-1.858-.635-2.973-.635zm75.248 3.281c-.875 0-1.618.263-2.208.766-.612.525-.984 1.225-1.115 2.078h6.624c-.11-.853-.481-1.531-1.071-2.056-.59-.525-1.334-.788-2.23-.788zm13.598 0c-.875 0-1.618.263-2.208.766-.612.525-.984 1.225-1.115 2.078h6.624c-.11-.853-.481-1.531-1.071-2.056-.59-.525-1.334-.788-2.23-.788z"/>
</svg>
