<?xml version="1.0" encoding="UTF-8"?>
<svg width="737px" height="140px" viewBox="0 0 737 140" version="1.1" xmlns="http://www.w3.org/2000/svg" xmlns:xlink="http://www.w3.org/1999/xlink">
    <title>Datameer Logo Navy Blue with Green Dot</title>
    <g id="Data-Transformation-Homepage-" stroke="none" stroke-width="1" fill="none" fill-rule="evenodd">
        <g id="Datameer-Logo-Navy-Blue-with-Green-Dot">
            <path d="M116.763949,97.5965303 C129.374455,76.4107632 126.313935,48.8138579 108.377251,30.8742737 C86.976813,9.47093421 52.2783384,9.47093421 30.872098,30.8742737 C9.47165946,52.2747124 9.47165946,86.9731866 30.872098,108.379427 C48.8116819,126.31611 76.4143896,129.370829 97.5943544,116.766125 C100.559144,113.801336 105.368948,113.801336 108.333737,116.766125 C111.295625,119.728013 111.295625,124.534916 108.333737,127.502606 C107.512763,128.317778 106.558345,128.906674 105.540105,129.277998 C78.5756105,145.56113 43.2911408,141.760862 20.3909018,118.860623 C-6.79696726,91.6698532 -6.79696726,47.5809467 20.3909018,20.3930775 C47.5816718,-6.79769251 91.6705786,-6.79769251 118.858447,20.3930775 C141.761587,43.2933163 145.558954,78.5864892 129.270021,105.548083 C128.904499,106.566322 128.315602,107.520741 127.50043,108.333012 C124.538542,111.297801 119.728738,111.297801 116.763949,108.333012 C113.79916,105.371124 113.79916,100.56422 116.763949,97.5965303 Z" id="Path" fill="#2F394E"></path>
            <path d="M69.6203233,29.0089515 C92.0361006,29.0089515 110.233871,47.2067216 110.233871,69.6224989 C110.233871,92.0382761 92.0361006,110.236046 69.6203233,110.236046 C47.204546,110.236046 29.0067758,92.0382761 29.0067758,69.6224989 C29.0067758,47.2067216 47.204546,29.0089515 69.6203233,29.0089515 Z" id="Path" fill="#29D398"></path>
            <path d="M296.425321,49.3177105 C305.019374,49.3177105 311.546503,51.3846347 316.115493,55.4096977 C320.575698,59.5435459 322.860193,65.7443183 322.860193,74.012015 L322.860193,108.061871 L310.023506,108.061871 L310.023506,100.990814 C308.391724,103.492881 305.998444,105.451019 302.95245,106.756445 C299.797671,108.170656 296.098965,108.823369 291.747545,108.823369 C287.396126,108.823369 283.588634,108.061871 280.32507,106.538874 C277.061505,105.124663 274.559439,103.057739 272.818871,100.338102 C270.969518,97.7272502 270.099234,94.7900421 270.099234,91.4176922 C270.099234,86.1959892 272.057373,81.9533551 275.97365,78.7985763 C279.781142,75.6437972 285.873129,74.1208005 294.249612,74.1208005 L309.262008,74.1208005 L309.262008,73.2505167 C309.262008,69.2254537 308.065368,66.0706749 305.672087,63.8949651 C303.170021,61.7192557 299.5801,60.6314008 294.793539,60.6314008 C291.529974,60.6314008 288.375195,61.1753281 285.220417,62.1543974 C282.065637,63.1334668 279.346,64.5476783 277.170291,66.3970311 L271.839802,56.4975523 C274.885796,54.2130573 278.584502,52.3637041 282.827136,51.1670637 C287.06977,49.9704236 291.63876,49.3177105 296.425321,49.3177105 Z M355.713406,37.1337367 L355.713406,50.4055654 L371.269728,50.4055654 L371.269728,61.2841136 L355.713406,61.2841136 L355.713406,88.9156262 C355.713406,91.7440488 356.366118,93.9197582 357.78033,95.3339697 C359.194541,96.8569663 361.15268,97.6184646 363.763531,97.6184646 C366.809525,97.6184646 369.311593,96.8569663 371.378516,95.2251842 L375.186007,104.907092 C373.554226,106.212518 371.704871,107.191587 369.420376,107.8443 C367.135881,108.497013 364.633815,108.823369 362.131749,108.823369 C355.713406,108.823369 350.818059,107.191587 347.336923,103.819237 C343.855788,100.446887 342.11522,95.6603259 342.11522,89.2419824 L342.11522,61.2841136 L332.542098,61.2841136 L332.542098,50.4055654 L342.11522,50.4055654 L342.11522,37.1337367 L355.713406,37.1337367 Z M408.583869,49.3177105 C417.177921,49.3177105 423.705052,51.3846347 428.274041,55.4096977 C432.734245,59.5435459 435.018739,65.7443183 435.018739,74.012015 L435.018739,108.061871 L422.182055,108.061871 L422.182055,100.990814 C420.55027,103.492881 418.156992,105.451019 415.110997,106.756445 C411.956219,108.170656 408.257511,108.823369 403.906094,108.823369 C399.554673,108.823369 395.747181,108.061871 392.483619,106.538874 C389.220053,105.124663 386.717988,103.057739 384.977419,100.338102 C383.128067,97.7272502 382.257783,94.7900421 382.257783,91.4176922 C382.257783,86.1959892 384.215919,81.9533551 388.132198,78.7985763 C391.939689,75.6437972 398.031675,74.1208005 406.408159,74.1208005 L421.420554,74.1208005 L421.420554,73.2505167 C421.420554,69.2254537 420.223915,66.0706749 417.830634,63.8949651 C415.328568,61.7192557 411.738648,60.6314008 406.952085,60.6314008 C403.688523,60.6314008 400.533744,61.1753281 397.378966,62.1543974 C394.224184,63.1334668 391.504547,64.5476783 389.328837,66.3970311 L383.998348,56.4975523 C387.044343,54.2130573 390.743051,52.3637041 394.985684,51.1670637 C399.228318,49.9704236 403.797306,49.3177105 408.583869,49.3177105 Z M592.758202,49.3177105 C598.415046,49.3177105 603.527964,50.5143509 607.988168,53.0164169 C612.448373,55.5184829 615.92951,59.1084042 618.431575,63.5686089 C620.824857,68.1375992 622.130279,73.3593022 622.130279,79.3425036 C622.130279,80.321573 622.021496,81.6269989 621.912712,83.3675666 L576.331593,83.3675666 C577.09309,87.6102003 579.268801,90.9825501 582.64115,93.4846165 C586.013499,95.9866825 590.147349,97.2921081 595.15148,97.2921081 C601.569824,97.2921081 606.791529,95.2251842 610.925376,90.9825501 L618.214004,99.3590323 C615.603152,102.513811 612.339589,104.798306 608.314527,106.430089 C604.289461,108.061871 599.829256,108.823369 594.825125,108.823369 C588.406781,108.823369 582.858721,107.517943 577.963374,105.015877 C573.068027,102.513811 569.369323,98.9238906 566.758471,94.3549003 C564.038834,89.8946956 562.733408,84.7817777 562.733408,79.0161474 C562.733408,73.3593022 564.038834,68.2463843 566.649687,63.6773941 C569.151752,59.2171893 572.741673,55.6272684 577.310661,53.1252024 C581.879653,50.6231364 586.992571,49.3177105 592.758202,49.3177105 Z M660.422291,49.3177105 C666.079135,49.3177105 671.192053,50.5143509 675.652257,53.0164169 C680.112462,55.5184829 683.593599,59.1084042 686.095664,63.5686089 C688.488946,68.1375992 689.794368,73.3593022 689.794368,79.3425036 C689.794368,80.321573 689.685585,81.6269989 689.576797,83.3675666 L643.995682,83.3675666 C644.757179,87.6102003 646.932889,90.9825501 650.305239,93.4846165 C653.677588,95.9866825 657.811438,97.2921081 662.815569,97.2921081 C669.233913,97.2921081 674.455618,95.2251842 678.589465,90.9825501 L685.878093,99.3590323 C683.267241,102.513811 680.003675,104.798306 675.978612,106.430089 C671.953549,108.061871 667.493345,108.823369 662.489214,108.823369 C656.07087,108.823369 650.52281,107.517943 645.627463,105.015877 C640.732116,102.513811 637.033412,98.9238906 634.422559,94.3549003 C631.702923,89.8946956 630.397497,84.7817777 630.397497,79.0161474 C630.397497,73.3593022 631.702923,68.2463843 634.313772,63.6773941 C636.815841,59.2171893 640.405762,55.6272684 644.97475,53.1252024 C649.543742,50.6231364 654.65666,49.3177105 660.422291,49.3177105 Z M218.969952,31.9120335 C227.128863,31.9120335 234.308705,33.4350302 240.618263,36.5898092 C246.927821,39.8533737 251.823168,44.204793 255.304303,49.9704236 C258.785439,55.736054 260.526006,62.480754 260.526006,69.9869524 C260.526006,77.4931504 258.785439,84.1290649 255.304303,89.8946956 C251.823168,95.6603259 246.927821,100.120531 240.618263,103.27531 C234.308705,106.430089 227.128863,108.061871 218.969952,108.061871 L185.681595,108.061871 L185.681595,31.9120335 L218.969952,31.9120335 Z M525.745828,49.3177105 C533.034456,49.3177105 538.908875,51.3846347 543.151508,55.6272684 C547.394142,59.978688 549.569849,66.288246 549.569849,74.7735133 L549.569849,108.061871 L535.971664,108.061871 L535.971664,76.514081 C535.971664,71.4011635 534.883808,67.5936715 532.599314,64.98282 C530.31482,62.480754 527.160042,61.1753281 522.917408,61.1753281 C518.348416,61.1753281 514.649712,62.6983251 511.930075,65.6355328 C509.210435,68.6815264 507.796225,73.0329456 507.796225,78.5810053 L507.796225,108.061871 L494.19804,108.061871 L494.19804,76.514081 C494.19804,71.4011635 493.110185,67.5936715 490.825691,64.98282 C488.541196,62.480754 485.386414,61.1753281 481.143781,61.1753281 C476.466005,61.1753281 472.876084,62.6983251 470.156448,65.6355328 C467.436812,68.5727409 466.022602,72.9241601 466.022602,78.5810053 L466.022602,108.061871 L452.424416,108.061871 L452.424416,49.9704236 L465.369888,49.9704236 L465.369888,57.3678361 C467.545595,54.7569846 470.265235,52.7988459 473.528797,51.3846347 C476.792363,49.9704236 480.382284,49.3177105 484.407346,49.3177105 C488.758767,49.3177105 492.675043,50.0792088 496.047392,51.7109913 C499.419742,53.451559 502.030594,55.8448395 503.988734,58.9996186 C506.382015,55.953625 509.428006,53.5603445 513.235498,51.8197769 C517.042989,50.1879943 521.176839,49.3177105 525.745828,49.3177105 Z M736.463685,49.3177105 L736.463685,62.263183 C735.267043,62.0456119 734.287975,61.9368264 733.308907,61.9368264 C727.978418,61.9368264 723.844568,63.4598234 720.907361,66.5058166 C717.970153,69.6605958 716.447156,74.1208005 716.447156,79.8864312 L716.447156,108.061871 L702.848971,108.061871 L702.848971,49.9704236 L715.794443,49.9704236 L715.794443,58.455691 C719.710722,52.3637041 726.564204,49.3177105 736.463685,49.3177105 Z M309.262008,83.1499955 L295.228681,83.1499955 C287.396126,83.1499955 283.479849,85.7608471 283.479849,90.873765 C283.479849,93.375831 284.458918,95.3339697 286.417057,96.7481808 C288.375195,98.1623923 291.094832,98.9238906 294.575968,98.9238906 C297.948318,98.9238906 300.994311,98.1623923 303.713948,96.5306097 C306.3248,95.0076131 308.174153,92.8319033 309.262008,89.8946956 L309.262008,83.1499955 Z M421.420554,83.1499955 L407.387227,83.1499955 C399.554673,83.1499955 395.638397,85.7608471 395.638397,90.873765 C395.638397,93.375831 396.617465,95.3339697 398.575605,96.7481808 C400.533744,98.1623923 403.253381,98.9238906 406.734514,98.9238906 C410.106867,98.9238906 413.152858,98.1623923 415.872494,96.5306097 C418.483347,95.0076131 420.332699,92.8319033 421.420554,89.8946956 L421.420554,83.1499955 Z M218.317239,43.8784364 L199.823707,43.8784364 L199.823707,96.095468 L218.317239,96.095468 C223.865299,96.095468 228.869431,95.0076131 233.112065,92.8319033 C237.245913,90.7649794 240.618263,87.7189858 242.902758,83.6939228 C245.187253,79.7776457 246.275108,75.2086554 246.275108,69.9869524 C246.275108,64.765249 245.187253,60.1962587 242.902758,56.1711961 C240.618263,52.2549186 237.245913,49.208925 233.112065,47.0332155 C228.869431,44.9662913 223.865299,43.8784364 218.317239,43.8784364 Z M592.758202,60.1962587 C588.406781,60.1962587 584.708077,61.5016846 581.770866,64.0037506 C578.724875,66.6146022 576.875519,70.0957375 576.222809,74.3383716 L609.184807,74.3383716 C608.640882,70.0957375 606.791529,66.7233877 603.854322,64.1125362 C600.917111,61.5016846 597.218407,60.1962587 592.758202,60.1962587 Z M660.422291,60.1962587 C656.07087,60.1962587 652.372162,61.5016846 649.434955,64.0037506 C646.388964,66.6146022 644.539608,70.0957375 643.886895,74.3383716 L676.848896,74.3383716 C676.304971,70.0957375 674.455618,66.7233877 671.518407,64.1125362 C668.5812,61.5016846 664.882496,60.1962587 660.422291,60.1962587 Z" id="Shape" fill="#2F394E"></path>
        </g>
    </g>
</svg>