<?xml version="1.0" encoding="utf-8"?>
<!-- Generator: Adobe Illustrator 25.2.1, SVG Export Plug-In . SVG Version: 6.00 Build 0)  -->
<svg version="1.1" id="Layer_1" xmlns="http://www.w3.org/2000/svg" xmlns:xlink="http://www.w3.org/1999/xlink" x="0px" y="0px"
	 viewBox="0 0 120.9 41.3" style="enable-background:new 0 0 120.9 41.3;" xml:space="preserve">
<style type="text/css">
	.st0{fill:#80C7E6;}
	.st1{fill:#F7986B;}
	.st2{fill:#E6C6AB;}
	.st3{fill:#44B0DC;}
	.st4{fill:#E52D8F;}
	.st5{fill:#F15F63;}
	.st6{fill:#9FA1A4;}
</style>
<g>
	<path class="st0" d="M28.1,15.3l4-2.3C29.3,8.2,24.2,5,18.3,5v4.6C22.5,9.6,26.1,11.9,28.1,15.3"/>
	<path class="st1" d="M7.1,20.9c0-2,0.6-4,1.5-5.6l-4-2.3c-1.3,2.3-2.1,5-2.1,7.9c0,2.9,0.8,5.6,2.1,7.9l4-2.3
		C7.6,24.9,7.1,22.9,7.1,20.9"/>
	<path class="st2" d="M18.3,9.6V5C12.5,5,7.3,8.2,4.6,13l4,2.3C10.5,11.9,14.2,9.6,18.3,9.6"/>
	<path class="st3" d="M32.1,13l-4,2.3c1,1.7,1.5,3.6,1.5,5.6c0,2-0.6,4-1.5,5.6l4,2.3c1.4-2.3,2.1-5,2.1-7.9
		C34.2,18,33.4,15.3,32.1,13"/>
	<path class="st4" d="M18.3,32.1v4.6c5.9,0,11-3.2,13.7-7.9l-4-2.3C26.1,29.9,22.5,32.1,18.3,32.1"/>
	<path class="st5" d="M8.6,26.5l-4,2.3c2.7,4.7,7.9,7.9,13.7,7.9v-4.6C14.2,32.1,10.5,29.9,8.6,26.5"/>
	<polygon class="st5" points="13.4,23.8 8.7,26.4 18.3,32 18.3,26.6 	"/>
	<polygon class="st1" points="13.4,18 8.7,15.3 8.7,26.4 13.4,23.8 	"/>
	<polygon class="st4" points="18.3,26.6 18.3,32 28,26.4 23.3,23.8 	"/>
	<polygon class="st3" points="23.3,23.8 28,26.4 28,15.3 23.3,18 	"/>
	<polygon class="st0" points="23.3,18 28,15.3 18.3,9.8 18.3,15.1 	"/>
	<polygon class="st2" points="8.7,15.3 13.4,18 18.3,15.1 18.3,9.8 	"/>
</g>
<g>
	<path class="st6" d="M48.6,21.9c0,0.1,0,0.3,0,0.4c0,0.2,0,0.3,0,0.3H43c0,0.4,0.2,0.8,0.5,1.1c0.4,0.4,0.9,0.6,1.7,0.6
		c0.7,0,1.4-0.2,2.1-0.6l0.8,1.6c-0.1,0.1-0.5,0.3-1,0.5c-0.7,0.3-1.5,0.4-2.2,0.4c-1.4,0-2.6-0.5-3.3-1.4c-0.7-0.8-1-1.8-1-3
		c0-1.3,0.4-2.4,1.1-3.2c0.8-0.8,1.7-1.3,3-1.3c1.2,0,2.2,0.4,2.9,1.2C48.3,19.4,48.6,20.5,48.6,21.9z M46.2,20.9
		c0-0.3-0.1-0.6-0.2-0.9c-0.2-0.5-0.7-0.7-1.2-0.7c-0.6,0-1,0.2-1.4,0.7c-0.2,0.3-0.3,0.6-0.3,0.9H46.2z"/>
	<path class="st6" d="M58.7,26h-3L54,23.5L52.3,26h-2.9l3.1-4.1l-3-4.2h3l1.6,2.3l1.4-2.3h2.8l-2.9,4.1L58.7,26z"/>
	<path class="st6" d="M66.8,26h-2.2v-0.7c-0.7,0.6-1.5,0.9-2.4,0.9c-0.8,0-1.5-0.3-2-0.8c-0.5-0.5-0.7-1.2-0.7-2
		c0-2.1,1.5-3.1,4.6-3.1h0.2c0-0.4-0.1-0.6-0.2-0.8c-0.2-0.2-0.5-0.3-1-0.3c-0.8,0-1.6,0.2-2.3,0.6L60,18.3c0.8-0.6,1.9-0.9,3.3-0.9
		c1.3,0,2.2,0.3,2.9,1c0.3,0.3,0.5,0.7,0.6,1.2c0,0.3,0.1,0.8,0.1,1.5V26z M64.4,23.8v-1.7c-1.2,0-2,0.2-2.3,0.5
		c-0.2,0.2-0.3,0.4-0.3,0.7c0,0.7,0.3,1,1,1C63.3,24.3,63.8,24.1,64.4,23.8z"/>
	<path class="st6" d="M77,21.7c0,1.3-0.4,2.4-1.2,3.3c-0.8,0.8-1.7,1.2-2.8,1.2c-0.5,0-1.1-0.1-1.6-0.4v3.8h-2.7v-12h2.2v0.6
		c0.6-0.6,1.4-0.9,2.3-0.9c1.1,0,2.1,0.4,2.7,1.2C76.6,19.4,77,20.4,77,21.7z M74.3,21.8c0-0.7-0.2-1.2-0.5-1.6
		c-0.3-0.4-0.7-0.6-1.3-0.6c-0.3,0-0.7,0.1-1.2,0.4v3.8c0.3,0.2,0.7,0.4,1.1,0.4c0.5,0,0.9-0.2,1.3-0.6C74.1,23,74.3,22.5,74.3,21.8
		z"/>
	<path class="st6" d="M84.7,25.7c-0.1,0.1-0.3,0.2-0.7,0.3c-0.5,0.2-1.1,0.3-1.6,0.3c-1,0-1.8-0.3-2.3-0.8c-0.3-0.3-0.6-0.8-0.7-1.2
		c-0.1-0.3-0.1-0.8-0.1-1.6v-2.8h-1.4v-2.1h1.4v-2.3h2.7v2.3h2.3v2.1h-2.3v3c0,0.4,0,0.7,0.1,0.9c0.1,0.3,0.4,0.4,0.8,0.4
		c0.4,0,0.7-0.1,1-0.2L84.7,25.7z"/>
	<path class="st6" d="M89,15.3c0,0.4-0.1,0.7-0.4,1c-0.3,0.3-0.6,0.4-1,0.4c-0.4,0-0.7-0.1-1-0.4c-0.3-0.3-0.4-0.6-0.4-1
		c0-0.4,0.1-0.7,0.4-1c0.3-0.3,0.6-0.4,1-0.4c0.4,0,0.7,0.1,1,0.4S89,14.9,89,15.3z M89,26h-2.7v-8.3H89V26z"/>
	<path class="st6" d="M98.9,17.7L95.8,26h-2.5l-3.1-8.3h2.8l1.7,5.4l1.7-5.4H98.9z"/>
	<path class="st6" d="M107.6,21.9c0,0.1,0,0.3,0,0.4c0,0.2,0,0.3,0,0.3H102c0,0.4,0.2,0.8,0.5,1.1c0.4,0.4,0.9,0.6,1.7,0.6
		c0.7,0,1.4-0.2,2.1-0.6l0.8,1.6c-0.1,0.1-0.5,0.3-1,0.5c-0.7,0.3-1.5,0.4-2.2,0.4c-1.4,0-2.6-0.5-3.3-1.4c-0.7-0.8-1-1.8-1-3
		c0-1.3,0.4-2.4,1.1-3.2c0.8-0.8,1.7-1.3,3-1.3c1.2,0,2.2,0.4,2.9,1.2C107.2,19.4,107.6,20.5,107.6,21.9z M105.2,20.9
		c0-0.3-0.1-0.6-0.2-0.9c-0.2-0.5-0.7-0.7-1.2-0.7c-0.6,0-1,0.2-1.4,0.7c-0.2,0.3-0.3,0.6-0.3,0.9H105.2z"/>
</g>
</svg>
