<svg width="154" height="19" xmlns="http://www.w3.org/2000/svg"><g fill="#FFF" fill-rule="evenodd"><path d="M36.283 12.82c-.771.786-1.67 1.18-2.695 1.18-.636 0-1.232-.13-1.79-.389a4.531 4.531 0 0 1-1.457-1.07 5.127 5.127 0 0 1-.98-1.604A5.43 5.43 0 0 1 29 8.944a5.064 5.064 0 0 1 1.355-3.479 4.778 4.778 0 0 1 1.49-1.07A4.396 4.396 0 0 1 33.71 4c.908 0 1.686.194 2.335.583a3.744 3.744 0 0 1 1.463 1.57l-1.402 1.055a2.634 2.634 0 0 0-1.028-1.125 2.78 2.78 0 0 0-1.436-.389 2.41 2.41 0 0 0-1.123.264c-.34.176-.63.417-.871.723a3.43 3.43 0 0 0-.558 1.055c-.132.398-.198.82-.198 1.264 0 .463.073.896.218 1.299.145.402.345.752.6 1.048a2.8 2.8 0 0 0 .904.702c.35.17.729.257 1.137.257.935 0 1.779-.45 2.532-1.348v-.694h-1.946V8.86h3.498v5.07h-1.552v-1.112zm7.536 1.11V4.07h4.275c.445 0 .855.094 1.232.284.376.19.7.44.973.75.272.31.486.662.64 1.056.154.393.231.79.231 1.187a3.33 3.33 0 0 1-.47 1.743c-.312.523-.737.9-1.272 1.132l2.205 3.709h-2.11l-1.974-3.306h-1.851v3.306h-1.879zm1.879-4.986h2.355a.978.978 0 0 0 .483-.125c.15-.083.28-.196.388-.34.11-.143.195-.312.259-.507a2 2 0 0 0 .095-.625c0-.231-.036-.444-.109-.639a1.675 1.675 0 0 0-.292-.507 1.327 1.327 0 0 0-.422-.333 1.078 1.078 0 0 0-.484-.118h-2.273v3.194zM59.85 4.07h1.66l3.676 9.862h-1.933l-.898-2.459h-3.376l-.885 2.459H56.16l3.689-9.862zm2.164 6.056L60.68 6.25l-1.388 3.875h2.722zm8.612 3.806V4.069h4.098a2.7 2.7 0 0 1 1.232.285c.376.19.7.44.973.75.272.31.485.662.64 1.056.154.393.231.79.231 1.187 0 .417-.072.822-.218 1.215-.145.394-.35.744-.612 1.05-.263.305-.581.55-.953.735-.372.185-.78.278-1.225.278h-2.288v3.306h-1.878zm1.878-4.987h2.179c.345 0 .633-.143.864-.43.232-.287.347-.676.347-1.167 0-.25-.036-.474-.109-.673a1.645 1.645 0 0 0-.286-.507 1.14 1.14 0 0 0-.415-.313 1.196 1.196 0 0 0-.483-.104h-2.097v3.194zM91.612 4.07v9.862h-1.865v-4.21h-4.384v4.209h-1.878V4.069h1.878v3.987h4.384V4.069h1.865zm6.392 9.862V4.069h1.879v9.862h-1.879zm8.271 0V4.069h1.879v8.181h4.928v1.68h-6.807zm19.04-1.681v1.68h-6.712V4.07h6.59v1.68h-4.711v2.375h4.07v1.556h-4.07v2.569h4.833zm9.768 1.75c-.708 0-1.35-.141-1.926-.424a4.74 4.74 0 0 1-1.484-1.125 5.138 5.138 0 0 1-.96-1.604 5.197 5.197 0 0 1-.34-1.847c0-.657.12-1.287.36-1.889a5.235 5.235 0 0 1 .994-1.597 4.745 4.745 0 0 1 1.505-1.104 4.39 4.39 0 0 1 1.892-.41c.699 0 1.336.146 1.913.438a4.79 4.79 0 0 1 1.477 1.145c.408.473.726 1.01.953 1.611a5.16 5.16 0 0 1-.014 3.716 5.124 5.124 0 0 1-.98 1.583 4.717 4.717 0 0 1-1.498 1.097 4.39 4.39 0 0 1-1.892.41zm-2.804-5c0 .426.063.838.19 1.236s.311.75.552 1.056c.24.305.535.55.885.736.349.185.746.278 1.19.278.455 0 .856-.095 1.206-.285.349-.19.644-.442.884-.757a3.41 3.41 0 0 0 .545-1.063 4.02 4.02 0 0 0-.014-2.437 3.43 3.43 0 0 0-.558-1.056 2.675 2.675 0 0 0-.885-.729c-.35-.18-.742-.27-1.177-.27-.454 0-.858.094-1.212.284a2.7 2.7 0 0 0-.885.75c-.236.31-.415.662-.537 1.056a4.02 4.02 0 0 0-.184 1.2zm15.227-1.389v6.32h-1.878V4.069h1.456l5.037 6.473V4.083H154v9.848h-1.525l-4.969-6.32z"/><ellipse cx="9.527" cy="9.527" rx="5.954" ry="5.989"/><ellipse cx="9.554" cy="1.334" rx="1.326" ry="1.334"/><ellipse cx="9.554" cy="17.666" rx="1.326" ry="1.334"/><ellipse transform="rotate(180 17.674 9.609)" cx="17.674" cy="9.609" rx="1.326" ry="1.334"/><ellipse transform="rotate(180 1.326 9.609)" cx="1.326" cy="9.609" rx="1.326" ry="1.334"/><ellipse transform="rotate(30 13.607 2.455)" cx="13.607" cy="2.455" rx="1.326" ry="1.334"/><ellipse transform="rotate(30 5.487 16.6)" cx="5.487" cy="16.599" rx="1.326" ry="1.334"/><ellipse transform="rotate(-150 16.579 13.705)" cx="16.579" cy="13.705" rx="1.326" ry="1.334"/><ellipse transform="rotate(-150 2.53 5.375)" cx="2.53" cy="5.375" rx="1.326" ry="1.334"/><ellipse transform="rotate(60 16.559 5.464)" cx="16.559" cy="5.464" rx="1.326" ry="1.334"/><ellipse transform="rotate(60 2.495 13.63)" cx="2.495" cy="13.63" rx="1.326" ry="1.334"/><ellipse transform="rotate(-120 13.601 16.62)" cx="13.601" cy="16.619" rx="1.326" ry="1.334"/><ellipse transform="rotate(-120 5.482 2.38)" cx="5.482" cy="2.381" rx="1.326" ry="1.334"/></g></svg>