<svg width="196" height="40" viewBox="0 0 196 40" fill="none" xmlns="http://www.w3.org/2000/svg">
<g clip-path="url(#clip0)">
<path d="M67.5 14.3137C69.0931 13.9706 70.8333 13.7745 72.7451 13.7745H74.9755C76.4951 13.7745 77.7696 14.3137 78.848 15.3922C79.902 16.4461 80.4412 17.7451 80.4412 19.2402V32.7206H77.0588V31.7892C76.3726 32.402 75.6863 32.7206 74.9755 32.7206H70.6618C68.9461 32.7206 67.5735 32.0588 66.5441 30.7353C65.6128 29.5343 65.1471 28.2108 65.1471 26.7157C65.1471 25.2941 65.5882 23.9951 66.4706 22.8186C67.5245 21.4216 68.9216 20.7108 70.6863 20.7108H75C75.8578 20.7108 76.5686 21.0294 77.0833 21.6667V19.2402C77.0833 18.4559 76.8137 17.7941 76.25 17.2549C75.7108 16.6912 75.049 16.4216 74.2647 16.4216H72.4265C70.9559 16.4216 69.3137 16.6422 67.5245 17.1078V14.3137H67.5ZM74.2402 30.0735C75.0245 30.0735 75.6863 29.8039 76.2255 29.2402C76.7892 28.701 77.0588 27.9657 77.0588 27.0833V24.4853C77.0588 24.0441 76.9363 23.7745 76.7157 23.652C76.3725 23.4559 75.5392 23.3578 74.2402 23.3578H71.4461C70.5637 23.3578 69.8529 23.701 69.3382 24.4118C68.8235 25.1225 68.5539 25.8824 68.5539 26.7157C68.5539 27.402 68.75 28.0637 69.1422 28.7255C69.6569 29.6078 70.4412 30.049 71.4461 30.049H74.2402V30.0735Z" fill="#25386B"/>
<path d="M90.0245 16.4706C89.2402 16.4706 88.5784 16.7402 88.0392 17.2794C87.4755 17.8431 87.2059 18.5049 87.2059 19.2647V27.2059C87.2059 27.9902 87.4755 28.652 88.0392 29.1912C88.6029 29.7304 89.2647 30 90.0245 30C90.2696 30 90.7353 30 91.4461 30.0245C92.8676 30.0245 93.9461 29.8775 94.6323 29.6324L95.8578 29.2892L96.4951 28.9951L97.451 31.7647L96.201 32.2059C95.1961 32.549 93.6274 32.7206 91.4951 32.7206H90.2696C89.8039 32.7206 89.4608 32.6961 89.2157 32.6961C87.6961 32.6961 86.4216 32.1569 85.3676 31.0784C84.2892 30.0245 83.75 28.75 83.75 27.2304V19.2892C83.75 17.7941 84.2892 16.4951 85.3676 15.4412C86.4216 14.3627 87.7206 13.8235 89.2157 13.8235C89.4608 13.8235 89.902 13.8235 90.5147 13.799C91.0784 13.7745 91.4951 13.75 91.7892 13.75H92.0588C94.0441 13.75 95.4657 13.9706 96.348 14.4118L97.5245 15L96.1274 17.6716L95.5882 17.3284L94.4118 16.7402C93.9706 16.5196 93.0882 16.3971 91.7647 16.3726L90.0245 16.4706Z" fill="#25386B"/>
<path d="M103.309 24.4853V32.6961H99.9265V7.20589H103.309V20.4412L109.485 13.799H113.676L105.564 22.3039L115.074 32.7206H110.809L103.309 24.4853Z" fill="#25386B"/>
<path d="M126.593 13.799C128.088 13.799 129.387 14.3382 130.441 15.4167C131.495 16.4706 132.034 17.7696 132.034 19.2647V27.2304C132.034 28.75 131.495 30.0245 130.441 31.0784C129.363 32.1569 128.088 32.6961 126.593 32.6961H122.279C120.784 32.6961 119.485 32.1569 118.431 31.0784C117.377 30.0245 116.838 28.7255 116.838 27.2304V19.2647C116.838 17.7451 117.377 16.4706 118.431 15.4167C119.51 14.3382 120.784 13.799 122.279 13.799H126.593ZM125.833 30.0735C126.618 30.0735 127.279 29.8039 127.843 29.2402C128.382 28.701 128.652 28.0392 128.652 27.2549V19.2647C128.652 18.4804 128.382 17.8186 127.843 17.2794C127.279 16.7157 126.618 16.4461 125.833 16.4461H123.039C122.255 16.4461 121.593 16.7157 121.054 17.2794C120.49 17.8431 120.221 18.5049 120.221 19.2647V27.2304C120.221 28.0147 120.49 28.6765 121.054 29.2157C121.593 29.7794 122.255 30.049 123.039 30.049H125.833V30.0735Z" fill="#25386B"/>
<path d="M142.157 30.2451V32.7206H140.074C138.26 32.7206 137.059 32.1569 136.446 31.0539C136.103 30.4167 135.907 29.3873 135.907 27.9657L135.882 27.6961V7.23039H139.265V28.1127C139.265 29.1422 139.338 29.7549 139.485 29.951C139.608 30.1471 140.049 30.2451 140.809 30.2451H142.157Z" fill="#25386B"/>
<path d="M145.98 14.3137C147.574 13.9706 149.314 13.7745 151.226 13.7745H153.456C154.975 13.7745 156.25 14.3137 157.328 15.3922C158.382 16.4461 158.922 17.7451 158.922 19.2402V32.7206H155.539V31.7892C154.853 32.402 154.167 32.7206 153.456 32.7206H149.142C147.426 32.7206 146.054 32.0588 145.025 30.7353C144.093 29.5343 143.627 28.2108 143.627 26.7157C143.627 25.2941 144.069 23.9951 144.951 22.8186C146.005 21.4216 147.402 20.7108 149.167 20.7108H153.48C154.338 20.7108 155.049 21.0294 155.564 21.6667V19.2402C155.564 18.4559 155.294 17.7941 154.73 17.2549C154.191 16.6912 153.529 16.4216 152.745 16.4216H150.907C149.436 16.4216 147.794 16.6422 146.005 17.1078V14.3137H145.98ZM152.721 30.0735C153.505 30.0735 154.167 29.8039 154.706 29.2402C155.27 28.701 155.539 27.9657 155.539 27.0833V24.4853C155.539 24.0441 155.417 23.7745 155.196 23.652C154.853 23.4559 154.02 23.3578 152.721 23.3578H149.926C149.044 23.3578 148.333 23.701 147.819 24.4118C147.304 25.1225 147.034 25.8824 147.034 26.7157C147.034 27.402 147.23 28.0637 147.623 28.7255C148.137 29.6078 148.922 30.049 149.926 30.049H152.721V30.0735Z" fill="#25386B"/>
<path d="M177.01 7.23039V32.7206H173.627V32.0343C173.333 32.5 172.941 32.7206 172.5 32.7206H167.745C166.226 32.7206 164.951 32.1814 163.873 31.1029C162.819 30.049 162.279 28.75 162.279 27.2549V19.2647C162.279 17.7451 162.819 16.4706 163.873 15.4167C164.951 14.3382 166.25 13.799 167.745 13.799H172.5C172.966 13.799 173.333 14.0196 173.627 14.4853V7.23039H177.01ZM172.574 30.0735C172.868 30.0735 173.113 29.9755 173.333 29.7794C173.554 29.5588 173.652 29.3137 173.652 29.0196V17.5C173.652 17.2059 173.554 16.9608 173.333 16.7647C173.113 16.5686 172.868 16.4706 172.574 16.4706H168.505C167.721 16.4706 167.059 16.7402 166.52 17.3039C165.956 17.8676 165.686 18.5294 165.686 19.2892V27.2549C165.686 28.0392 165.956 28.701 166.52 29.2402C167.083 29.8039 167.745 30.0735 168.505 30.0735H172.574Z" fill="#25386B"/>
<path d="M185.809 32.7206C184.289 32.7206 183.015 32.1814 181.961 31.1029C180.907 30.049 180.368 28.75 180.368 27.2549V19.2647C180.368 17.7451 180.907 16.4706 181.961 15.4167C183.015 14.3382 184.314 13.799 185.809 13.799H190.123C191.814 13.799 193.186 14.3873 194.191 15.5882C195.123 16.6667 195.564 17.9657 195.564 19.4853C195.564 21.0049 195.123 22.2794 194.216 23.3333C193.186 24.5588 191.814 25.1716 190.098 25.1716H183.701V27.2304C183.701 28.0147 183.971 28.6765 184.534 29.2157C185.098 29.7794 185.76 30.049 186.52 30.049H189.485C190.588 30 191.422 29.8775 191.961 29.6814L193.211 29.2647L193.848 28.9706L194.804 31.7402L193.554 32.1814C192.721 32.451 191.544 32.6226 190.049 32.6716C190.049 32.6716 190.025 32.6716 190 32.6961H185.809V32.7206ZM186.569 16.4461C185.784 16.4461 185.098 16.7157 184.559 17.2794C183.995 17.8431 183.725 18.5049 183.725 19.2647V22.549H189.363C190.245 22.549 190.956 22.2549 191.471 21.6422C191.936 21.0539 192.181 20.3431 192.181 19.4853C192.181 18.75 191.985 18.0882 191.618 17.549C191.103 16.8137 190.368 16.4461 189.363 16.4461H186.569Z" fill="#25386B"/>
<path d="M57.3529 18.5539H45.9069V20.8824H57.3529V18.5539Z" fill="#25386B"/>
<path d="M64.0441 19.4853C63.0392 18.9951 62.4019 18.4559 62.2549 18.1127V17.8922V17.8677C62.2304 17.7206 62.2549 17.6471 62.2549 17.6226V11.0294C62.2549 10.2451 62.1814 9.55883 62.0343 8.9951C61.8627 8.35785 61.6421 7.86765 61.3235 7.47549C60.9804 7.05883 60.5637 6.7402 60.098 6.56863C59.6569 6.39706 59.1912 6.32353 58.701 6.32353H55.7843V10.0245H58.4559C58.6029 10.0245 58.6274 10.049 58.6274 10.049C58.701 10.1961 58.799 10.5392 58.799 11.299V17.1814C58.799 17.1814 58.799 19.3873 60.3431 19.7794C60.3431 19.7794 59.0686 20.2941 58.7745 22.1078V28.8235C58.7745 29.6078 58.6519 29.9755 58.6029 30.1226C58.6029 30.1226 58.5539 30.1471 58.4559 30.1471H55.7843V33.8235H58.701C59.1912 33.8235 59.6814 33.75 60.098 33.5784C60.5882 33.3824 61.0049 33.0637 61.348 32.6471C61.6421 32.2549 61.8872 31.7402 62.0588 31.1275C62.2059 30.5637 62.2794 29.8775 62.2794 29.0686V22.0098C62.2794 21.9608 62.2794 21.9118 62.2794 21.8873L62.3039 21.5931C62.6716 20.6618 64.0931 19.9755 64.0931 19.9755L64.5343 19.7059L64.0441 19.4853Z" fill="#25386B"/>
<path d="M39.2157 19.4853C40.2206 18.9951 40.8578 18.4559 41.0049 18.1127V17.8922V17.8677C41.0294 17.7206 41.0049 17.6471 41.0049 17.6226V11.0294C41.0049 10.2451 41.0784 9.55883 41.2255 8.9951C41.3971 8.35785 41.6176 7.86765 41.9363 7.47549C42.2794 7.05883 42.6961 6.7402 43.1618 6.56863C43.6029 6.39706 44.0686 6.32353 44.5588 6.32353H47.4755V10.0245H44.8039C44.6569 10.0245 44.6324 10.049 44.6324 10.049C44.5588 10.1961 44.4608 10.5392 44.4608 11.299V17.1814C44.4608 17.1814 44.4608 19.3873 42.9167 19.7794C42.9167 19.7794 44.1912 20.2941 44.4853 22.1078V28.8235C44.4853 29.6078 44.6078 29.9755 44.6569 30.1226C44.6569 30.1226 44.7059 30.1471 44.8039 30.1471H47.4755V33.8235H44.5588C44.0686 33.8235 43.5784 33.75 43.1618 33.5784C42.6716 33.3824 42.2549 33.0637 41.9118 32.6471C41.6176 32.2549 41.3725 31.7402 41.201 31.1275C41.0539 30.5637 40.9804 29.8775 40.9804 29.0686V22.0098C40.9804 21.9608 40.9804 21.9118 40.9804 21.8873L40.9559 21.5931C40.6127 20.6373 39.2157 19.9755 39.1912 19.9755L38.75 19.7059L39.2157 19.4853Z" fill="#25386B"/>
<path d="M22.5 0H0V22.5L22.5 0Z" fill="#189FCE"/>
<path d="M0 40V23.75L12.5 11.25H28.75L0 40Z" fill="#0073B2"/>
<path d="M15 26.25L28.75 12.5V40L15 26.25Z" fill="#22386F"/>
</g>
<defs>
<clipPath id="clip0">
<rect width="195.564" height="40" fill="white"/>
</clipPath>
</defs>
</svg>
