<?xml version="1.0" encoding="utf-8"?>
<!-- Generator: Adobe Illustrator 16.0.0, SVG Export Plug-In . SVG Version: 6.00 Build 0)  -->
<!DOCTYPE svg PUBLIC "-//W3C//DTD SVG 1.1//EN" "http://www.w3.org/Graphics/SVG/1.1/DTD/svg11.dtd">
<svg version="1.1" id="Layer_1" xmlns="http://www.w3.org/2000/svg" xmlns:xlink="http://www.w3.org/1999/xlink" x="0px" y="0px"
	 width="364px" height="128px" viewBox="27.75 19.75 364 128" enable-background="new 27.75 19.75 364 128" xml:space="preserve">
<g id="Layer_1_1_">
	<g>
		<polygon fill="#231F20" points="214.913,99.294 223.703,47.513 236.963,47.513 247.473,75.194 258.602,47.513 271.999,47.513 
			279.829,99.294 266.366,99.294 262.587,69.491 262.453,69.491 250.019,99.294 244.658,99.294 232.777,69.491 232.635,69.491 
			228.307,99.294 		"/>
		<polygon fill="#231F20" points="315.088,58.913 299.087,58.913 299.087,67.568 314.261,67.568 314.261,78.966 299.087,78.966 
			299.087,87.895 315.088,87.895 315.088,99.294 285.623,99.294 285.623,47.513 315.088,47.513 		"/>
		<polygon fill="#231F20" points="363.689,47.513 352.563,75.19 342.052,47.513 328.788,47.513 320.004,99.294 333.399,99.294 
			337.729,69.491 337.861,69.491 349.752,99.294 355.107,99.294 367.536,69.491 367.676,69.491 371.46,99.294 384.918,99.294 
			377.089,47.513 		"/>
		<path fill="#231F20" d="M233.296,122.938h15.226c0.065,2.779-0.161,5.168-0.685,7.172c-0.511,2.006-1.546,3.914-3.095,5.721
			c-1.65,1.943-3.682,3.447-6.09,4.511s-4.89,1.594-7.443,1.594c-5.14,0-9.56-1.837-13.262-5.541
			c-3.702-3.7-5.554-8.126-5.554-13.261c0-5.233,1.862-9.712,5.583-13.432c3.715-3.712,8.206-5.571,13.477-5.571
			c6.273,0,11.427,2.632,15.471,7.902l-2.961,2.76c-3.269-4.584-7.454-6.885-12.558-6.885c-4.14,0-7.66,1.506-10.57,4.508
			c-2.911,3.006-4.362,6.599-4.362,10.762c0,3.98,1.42,7.417,4.266,10.329c1.387,1.389,3.007,2.514,4.842,3.367
			c1.849,0.859,3.695,1.288,5.534,1.288c3.325,0,6.336-1.089,9.017-3.272c2.69-2.176,4.027-4.906,4.027-8.165h-10.862V122.938z"/>
		<path fill="#231F20" d="M263.066,125.262v16.051h-4.07v-36.557h5.285c1.874,0,3.553,0.14,5.038,0.432
			c1.49,0.293,2.896,0.798,4.224,1.509c1.317,0.71,2.339,1.757,3.053,3.125c0.71,1.373,1.068,3.045,1.068,5.021
			c0,2.808-0.827,5.139-2.478,6.979c-1.644,1.837-3.874,2.875-6.688,3.102l11.639,16.39h-4.992l-11.064-16.051H263.066z
			 M263.066,108.541v13.139h1.265c1.29,0,2.43-0.078,3.416-0.243c0.985-0.163,1.96-0.463,2.908-0.9
			c0.959-0.428,1.682-1.105,2.186-2.008c0.501-0.905,0.748-2.038,0.748-3.396c0-1.163-0.178-2.155-0.534-2.974
			c-0.354-0.825-0.791-1.473-1.305-1.941c-0.517-0.469-1.216-0.831-2.083-1.093c-0.878-0.256-1.713-0.415-2.5-0.486
			c-0.794-0.059-1.758-0.097-2.884-0.097H263.066L263.066,108.541z"/>
		<path fill="#231F20" d="M312.167,130.937H296.55l-4.406,10.376h-4.466l16.877-38.303l16.44,38.303h-4.513L312.167,130.937z
			 M310.571,127.157l-6.112-14.642l-6.262,14.642H310.571z"/>
		<path fill="#231F20" d="M333.725,125.314v16.002h-4.069v-36.559h6.01c2.006,0,3.715,0.108,5.139,0.342
			c1.424,0.22,2.733,0.756,3.927,1.6c1.329,0.936,2.35,2.138,3.061,3.612c0.717,1.468,1.068,3.046,1.068,4.728
			c0,3.294-1.164,5.913-3.484,7.849c-1.983,1.62-4.879,2.427-8.689,2.427H333.725z M333.725,108.541v12.989h2.716
			c5.56,0,8.342-2.196,8.342-6.588c0-1.168-0.184-2.152-0.561-2.96c-0.365-0.811-0.838-1.429-1.405-1.868
			c-0.56-0.434-1.299-0.772-2.203-1.021c-0.908-0.237-1.75-0.386-2.521-0.457c-0.776-0.059-1.728-0.095-2.866-0.095H333.725z"/>
		<polygon fill="#231F20" points="362.317,119.596 381.034,119.596 381.034,104.758 385.112,104.758 385.112,141.312 
			381.034,141.312 381.034,123.375 362.317,123.375 362.317,141.312 358.243,141.312 358.243,104.758 362.317,104.758 		"/>
		<g>
			
				<linearGradient id="SVGID_1_" gradientUnits="userSpaceOnUse" x1="45.7427" y1="38.105" x2="81.5886" y2="76.9686" gradientTransform="matrix(1 0 0 -1 -8.3599 142.5547)">
				<stop  offset="0" style="stop-color:#FF0097"/>
				<stop  offset="1" style="stop-color:#FFC516"/>
			</linearGradient>
			<path fill="url(#SVGID_1_)" d="M74.285,65.188c0.136-0.22,0.274-0.438,0.39-0.668c0.071-0.123,0.15-0.241,0.213-0.37
				c0.073-0.126,0.15-0.245,0.218-0.371c0.071-0.121,0.15-0.245,0.213-0.366c0.073-0.122,0.152-0.245,0.218-0.367
				c0.073-0.127,0.148-0.247,0.215-0.374c0.075-0.118,0.148-0.241,0.216-0.367c0.075-0.121,0.148-0.242,0.218-0.366
				c0.074-0.119,0.146-0.245,0.217-0.366c0.073-0.121,0.146-0.245,0.214-0.366c0.075-0.122,0.147-0.241,0.215-0.369
				c0.077-0.119,0.148-0.242,0.218-0.364c0.077-0.119,0.144-0.242,0.215-0.364c0.079-0.121,0.145-0.241,0.218-0.362
				c0.079-0.123,0.144-0.242,0.215-0.364c0.077-0.119,0.145-0.245,0.218-0.368c0.077-0.119,0.143-0.246,0.215-0.362
				c0.079-0.119,0.143-0.246,0.216-0.364c0.077-0.115,0.143-0.24,0.215-0.361c0.082-0.119,0.146-0.247,0.222-0.37
				c0.152-0.229,0.281-0.463,0.418-0.697c0.148-0.24,0.299-0.474,0.429-0.715c0.079-0.132,0.167-0.265,0.24-0.399
				c0.073-0.121,0.155-0.245,0.223-0.372c0.073-0.123,0.156-0.243,0.224-0.368c0.073-0.125,0.154-0.245,0.225-0.372
				c0.073-0.121,0.156-0.247,0.223-0.368c0.075-0.125,0.156-0.246,0.225-0.372c0.075-0.123,0.156-0.244,0.225-0.368
				c0.075-0.121,0.152-0.246,0.223-0.366c0.077-0.126,0.154-0.249,0.225-0.374c0.075-0.123,0.152-0.245,0.225-0.37
				c0.075-0.121,0.152-0.243,0.222-0.368c0.077-0.119,0.152-0.243,0.225-0.368c0.077-0.121,0.152-0.242,0.223-0.366
				c0.077-0.121,0.152-0.242,0.225-0.366c0.067-0.104,0.131-0.209,0.195-0.317c0.093-0.145,0.181-0.294,0.271-0.441
				c0.079-0.126,0.156-0.254,0.231-0.381c0.08-0.121,0.154-0.249,0.23-0.375c0.079-0.125,0.154-0.25,0.231-0.377
				c0.079-0.123,0.153-0.25,0.229-0.377c0.081-0.123,0.156-0.251,0.232-0.372c0.096-0.15,0.182-0.3,0.272-0.446
				c0.127-0.198,0.249-0.396,0.363-0.595c0.079-0.126,0.159-0.253,0.234-0.383c3.81-6.138,3.043-14.305-2.303-19.618
				c-6.218-6.182-16.274-6.154-22.459,0.062c-3.026,3.045-4.56,7.005-4.612,10.981c-0.003,0.068-0.001,0.138-0.003,0.204
				c0,0.021-0.002,0.04-0.002,0.058c-0.002,0.073-0.002,0.143-0.003,0.22c-0.007,0.157-0.009,0.318-0.012,0.479
				c-0.005,0.161-0.007,0.322-0.009,0.479c-0.005,0.161-0.007,0.32-0.009,0.481c-0.006,0.157-0.007,0.318-0.009,0.479
				c-0.005,0.157-0.01,0.32-0.01,0.476c-0.007,0.161-0.009,0.32-0.011,0.479c-0.007,0.159-0.011,0.32-0.011,0.478
				c-0.007,0.205-0.011,0.414-0.011,0.623c-0.008,0.145-0.002,0.289-0.004,0.434c-0.012,0.168-0.01,0.335-0.014,0.507
				c-0.009,0.161-0.007,0.333-0.011,0.498c-0.009,0.167-0.009,0.335-0.015,0.5c-0.01,0.17-0.01,0.334-0.012,0.503
				c-0.009,0.165-0.011,0.335-0.013,0.5c-0.009,0.168-0.011,0.335-0.013,0.5c-0.008,0.168-0.012,0.333-0.014,0.5
				c-0.007,0.167-0.011,0.333-0.013,0.5c-0.007,0.168-0.011,0.33-0.013,0.498c-0.008,0.168-0.014,0.333-0.014,0.498
				c-0.005,0.167-0.013,0.333-0.013,0.498c-0.005,0.168-0.015,0.333-0.015,0.498c-0.006,0.167-0.014,0.329-0.014,0.496
				c-0.005,0.165-0.015,0.33-0.015,0.496c-0.003,0.165-0.016,0.33-0.014,0.494c-0.005,0.168-0.017,0.331-0.015,0.494
				c-0.004,0.11-0.013,0.22-0.013,0.328c-0.002,0.031,0,0.051-0.002,0.075c0,0.026-0.002,0.044-0.002,0.068
				c-0.008,0.115-0.006,0.227-0.01,0.342c-0.013,0.165-0.011,0.333-0.017,0.505c-0.011,0.165-0.011,0.333-0.017,0.501
				c-0.012,0.165-0.012,0.333-0.017,0.503c-0.011,0.167-0.013,0.331-0.017,0.501c-0.012,0.167-0.014,0.331-0.021,0.5
				c-0.009,0.168-0.015,0.335-0.017,0.503c-0.01,0.163-0.016,0.329-0.019,0.5c-0.009,0.165-0.017,0.329-0.021,0.5
				c-0.01,0.165-0.017,0.33-0.019,0.496c-0.009,0.163-0.018,0.329-0.018,0.494c-0.01,0.168-0.023,0.337-0.023,0.5
				c-0.007,0.163-0.021,0.326-0.021,0.496c-0.008,0.161-0.022,0.322-0.022,0.491c-0.015,0.161-0.015,0.329-0.021,0.494
				c-0.015,0.167-0.017,0.336-0.022,0.501c-0.015,0.172-0.02,0.333-0.025,0.506c-0.013,0.163-0.019,0.333-0.024,0.498
				c-0.012,0.163-0.019,0.335-0.024,0.5c-0.013,0.164-0.021,0.335-0.025,0.499c-0.013,0.165-0.022,0.331-0.024,0.496
				c-0.014,0.165-0.024,0.329-0.028,0.494c-0.011,0.167-0.024,0.331-0.026,0.494c-0.011,0.163-0.027,0.327-0.029,0.494
				c-0.002,0.033-0.004,0.071-0.005,0.113c-0.014,0.121-0.016,0.242-0.021,0.358c0,0.004-0.002,0.012-0.002,0.019
				c-0.002,0.04-0.004,0.081-0.005,0.123c-0.018,0.166-0.021,0.331-0.03,0.503c-0.017,0.161-0.023,0.326-0.03,0.494
				c-0.015,0.163-0.026,0.329-0.032,0.494c-0.015,0.168-0.023,0.329-0.029,0.494c-0.016,0.168-0.03,0.327-0.036,0.496
				c-0.014,0.163-0.028,0.322-0.032,0.49c-0.013,0.159-0.032,0.324-0.036,0.485c-0.007,0.069-0.011,0.139-0.015,0.208
				c-0.021,0.163-0.027,0.33-0.038,0.494c-0.02,0.165-0.027,0.333-0.034,0.498c-0.021,0.159-0.032,0.325-0.039,0.486
				c-0.018,0.165-0.03,0.328-0.038,0.491c-0.021,0.161-0.036,0.325-0.04,0.486c-0.017,0.161-0.037,0.318-0.044,0.483
				c-0.01,0.093-0.018,0.183-0.025,0.272c-0.022,0.163-0.032,0.327-0.04,0.492c-0.02,0.161-0.034,0.322-0.044,0.483
				c-0.021,0.166-0.034,0.325-0.043,0.483c-0.021,0.162-0.038,0.321-0.047,0.482c-0.021,0.159-0.04,0.315-0.049,0.475
				c-0.015,0.107-0.027,0.219-0.038,0.327c-0.022,0.161-0.035,0.318-0.048,0.479c-0.024,0.161-0.038,0.314-0.052,0.476
				c-0.023,0.157-0.04,0.315-0.055,0.476c-0.022,0.154-0.043,0.312-0.056,0.469c-0.023,0.154-0.046,0.312-0.062,0.465
				c-0.017,0.121-0.029,0.242-0.04,0.358c-0.007,0.039-0.017,0.068-0.022,0.11c-0.018,0.117-0.024,0.237-0.036,0.358
				c-0.013,0.075-0.032,0.145-0.043,0.222c-0.009,0.08-0.011,0.159-0.019,0.238c-0.021,0.115-0.043,0.23-0.058,0.346
				c-0.006,0.04-0.004,0.076-0.007,0.117c-0.025,0.124-0.048,0.26-0.061,0.395c-0.03,0.148-0.047,0.304-0.064,0.458
				c-0.028,0.148-0.049,0.296-0.067,0.454c-0.03,0.143-0.055,0.292-0.073,0.442c-0.028,0.15-0.059,0.295-0.077,0.443
				c-0.029,0.141-0.051,0.296-0.068,0.444c-0.032,0.141-0.056,0.295-0.075,0.438c-0.034,0.145-0.06,0.285-0.081,0.434
				c-0.036,0.153-0.067,0.31-0.089,0.469c-0.032,0.141-0.054,0.283-0.077,0.43c-0.032,0.143-0.06,0.285-0.081,0.429
				c-0.036,0.135-0.066,0.274-0.089,0.417c-0.042,0.164-0.073,0.329-0.1,0.498c-0.034,0.131-0.06,0.272-0.086,0.411
				c-0.036,0.138-0.067,0.272-0.094,0.41c-0.043,0.161-0.082,0.324-0.114,0.492c-0.035,0.138-0.065,0.274-0.091,0.417
				c-0.04,0.132-0.072,0.266-0.097,0.401c-0.047,0.153-0.089,0.309-0.118,0.472c-0.045,0.141-0.077,0.287-0.109,0.434
				c-0.039,0.127-0.075,0.258-0.103,0.392c-0.049,0.146-0.092,0.304-0.129,0.462c-0.045,0.143-0.082,0.287-0.116,0.436
				c-0.041,0.124-0.079,0.256-0.11,0.386c-0.051,0.148-0.097,0.304-0.137,0.461c-0.049,0.141-0.09,0.284-0.128,0.431
				c-0.043,0.128-0.083,0.256-0.118,0.38c-0.056,0.154-0.106,0.304-0.148,0.462c-0.05,0.141-0.095,0.281-0.137,0.43
				c-0.046,0.126-0.086,0.258-0.125,0.383c-0.059,0.149-0.111,0.296-0.156,0.446c-0.055,0.143-0.102,0.289-0.146,0.436
				c-0.05,0.128-0.095,0.256-0.136,0.386c-0.059,0.141-0.111,0.284-0.155,0.427c-0.062,0.149-0.113,0.3-0.162,0.45
				c-0.054,0.13-0.103,0.26-0.146,0.394c-0.055,0.126-0.111,0.262-0.156,0.392c-0.069,0.159-0.126,0.311-0.18,0.474
				c-0.058,0.13-0.109,0.264-0.155,0.399c-0.06,0.128-0.116,0.263-0.163,0.406c-0.064,0.135-0.127,0.276-0.18,0.422
				c-0.065,0.138-0.118,0.28-0.17,0.423c-0.064,0.134-0.118,0.271-0.168,0.406c-0.064,0.14-0.126,0.274-0.179,0.414
				c-0.068,0.136-0.129,0.274-0.184,0.413c-0.065,0.138-0.12,0.278-0.175,0.418c-0.068,0.135-0.125,0.274-0.184,0.417
				c-0.068,0.136-0.133,0.274-0.191,0.413c-0.061,0.123-0.122,0.253-0.174,0.374c0,0.003,0,0.003-0.001,0.003
				c-0.006,0.015-0.014,0.033-0.02,0.048c-0.061,0.121-0.116,0.245-0.168,0.37c-0.071,0.137-0.132,0.279-0.195,0.423
				c-0.071,0.141-0.139,0.279-0.198,0.422c-0.073,0.144-0.145,0.284-0.206,0.429c-0.051,0.106-0.105,0.212-0.154,0.322
				c-0.006,0.011-0.012,0.019-0.017,0.031c-0.073,0.126-0.127,0.262-0.188,0.395c-0.022,0.041-0.048,0.083-0.07,0.123
				c-0.051,0.101-0.09,0.205-0.137,0.3c-0.04,0.073-0.084,0.146-0.122,0.22c-0.032,0.069-0.059,0.14-0.088,0.207
				c-0.057,0.107-0.116,0.203-0.169,0.314c-0.017,0.039-0.029,0.079-0.046,0.115c-0.072,0.136-0.146,0.266-0.21,0.403
				c-0.003,0.015-0.005,0.021-0.009,0.034c-0.049,0.084-0.094,0.178-0.137,0.27c-0.079,0.135-0.146,0.279-0.215,0.428
				c-0.079,0.138-0.152,0.284-0.223,0.429c-0.079,0.143-0.154,0.285-0.223,0.434c-0.079,0.141-0.156,0.285-0.227,0.436
				c-0.079,0.141-0.157,0.279-0.23,0.43c-0.04,0.073-0.081,0.15-0.118,0.224c-0.081,0.137-0.152,0.287-0.226,0.428
				c-0.081,0.143-0.155,0.287-0.229,0.434c-0.081,0.142-0.158,0.284-0.23,0.431c-0.084,0.143-0.161,0.289-0.234,0.434
				c-0.083,0.145-0.163,0.285-0.236,0.436c-0.082,0.145-0.167,0.287-0.24,0.434c-0.03,0.057-0.062,0.111-0.09,0.165
				c-0.015,0.029-0.027,0.049-0.043,0.076c-0.034,0.064-0.075,0.13-0.107,0.2c-0.027,0.049-0.054,0.099-0.084,0.151
				c-0.084,0.141-0.159,0.289-0.236,0.429c-0.083,0.141-0.159,0.291-0.236,0.436c-0.084,0.141-0.163,0.281-0.24,0.432
				c-0.086,0.143-0.165,0.281-0.242,0.432c-0.086,0.143-0.167,0.285-0.243,0.432c-0.085,0.144-0.169,0.284-0.246,0.436
				c-0.083,0.145-0.168,0.286-0.245,0.436c-0.084,0.146-0.172,0.286-0.247,0.439c-0.014,0.022-0.028,0.048-0.04,0.069
				c-0.089,0.138-0.165,0.286-0.246,0.431c-0.084,0.137-0.161,0.283-0.243,0.428c-0.088,0.138-0.167,0.282-0.244,0.431
				c-0.09,0.143-0.167,0.281-0.249,0.428c-0.087,0.146-0.169,0.289-0.25,0.436c-0.084,0.139-0.168,0.282-0.247,0.432
				c-0.086,0.142-0.173,0.286-0.253,0.434c-0.086,0.144-0.172,0.284-0.251,0.431c-0.086,0.141-0.172,0.285-0.25,0.436
				c-0.085,0.145-0.175,0.285-0.253,0.436c-0.083,0.139-0.168,0.269-0.244,0.41c-0.084,0.128-0.155,0.271-0.234,0.409
				c-0.091,0.138-0.167,0.282-0.252,0.425c-0.088,0.138-0.168,0.284-0.25,0.43c-0.088,0.138-0.168,0.284-0.251,0.427
				c-0.088,0.141-0.171,0.282-0.255,0.43c-0.088,0.144-0.168,0.284-0.254,0.431c-0.086,0.141-0.172,0.281-0.254,0.428
				c-0.086,0.142-0.17,0.286-0.255,0.429c-0.086,0.141-0.174,0.283-0.254,0.43c-0.088,0.143-0.175,0.284-0.257,0.431
				c-0.086,0.146-0.174,0.283-0.254,0.432c-0.086,0.141-0.177,0.281-0.257,0.432c-0.086,0.143-0.178,0.28-0.256,0.43
				c-0.089,0.144-0.179,0.284-0.261,0.435c-1.116,1.881-1.765,4.071-1.765,6.419c0,6.98,5.661,12.639,12.64,12.639
				c6.981,0,12.644-5.66,12.644-12.639c0-0.025-0.007-0.053-0.007-0.08c0.006-0.106,0.021-0.214,0.021-0.326
				c0-0.036-0.004-0.065-0.006-0.095c0.004-0.106,0.019-0.207,0.019-0.312c0.002-0.04-0.004-0.076-0.004-0.117
				c0.004-0.099,0.017-0.193,0.017-0.292c0.002-0.041-0.003-0.087-0.003-0.132c0.003-0.088,0.017-0.182,0.021-0.274
				c0-0.048-0.007-0.103-0.007-0.148c0.003-0.09,0.018-0.169,0.02-0.255c0.002-0.062-0.005-0.117-0.004-0.172
				c0.004-0.08,0.015-0.161,0.018-0.234c0.002-0.065-0.004-0.126-0.004-0.193c0.004-0.073,0.015-0.14,0.019-0.216
				c0.002-0.07-0.005-0.14-0.004-0.209c0.004-0.064,0.015-0.13,0.017-0.196c0.004-0.076-0.003-0.153-0.002-0.23
				c0.004-0.061,0.016-0.115,0.02-0.176c0.003-0.086-0.004-0.17-0.002-0.252c0.004-0.052,0.011-0.101,0.015-0.154
				c0.004-0.089-0.002-0.181,0-0.274c0.002-0.042,0.011-0.086,0.013-0.13c0.006-0.099,0-0.193,0.002-0.293
				c0.002-0.04,0.01-0.073,0.012-0.109c0.009-0.109,0-0.212,0.004-0.322c0.002-0.029,0.011-0.059,0.013-0.088
				c0.007-0.117,0-0.227,0.005-0.338c0.002-0.024,0.006-0.044,0.007-0.068c0.01-0.121,0.005-0.239,0.008-0.358
				c0.002-0.021,0.005-0.035,0.005-0.048c0.011-0.13,0.006-0.252,0.011-0.383c0-0.007,0.002-0.016,0.003-0.02
				c0.014-0.154,0.009-0.302,0.016-0.452c0.022-0.269,0.028-0.534,0.031-0.8c0.014-0.214,0.032-0.434,0.032-0.649
				c0.005-0.138,0.019-0.28,0.019-0.419c0.007-0.138,0.018-0.278,0.02-0.418c0.005-0.141,0.018-0.279,0.02-0.422
				c0.007-0.138,0.018-0.28,0.02-0.42c0.007-0.143,0.017-0.279,0.021-0.421c0.007-0.139,0.017-0.281,0.02-0.422
				c0.01-0.142,0.018-0.28,0.021-0.427c0.011-0.138,0.017-0.278,0.024-0.417c0.012-0.14,0.018-0.286,0.023-0.429
				c0.011-0.141,0.016-0.281,0.021-0.421c0.015-0.143,0.018-0.285,0.024-0.428c0.015-0.142,0.017-0.286,0.026-0.429
				c0.013-0.135,0.017-0.276,0.024-0.419c0.019-0.195,0.024-0.383,0.034-0.569c0.025-0.249,0.045-0.494,0.047-0.739
				c0.011-0.139,0.026-0.274,0.028-0.413c0.012-0.14,0.024-0.278,0.028-0.421c0.011-0.138,0.024-0.278,0.028-0.419
				c0.013-0.138,0.024-0.28,0.029-0.418c0.014-0.141,0.026-0.281,0.032-0.419c0.014-0.143,0.023-0.28,0.03-0.425
				c0.015-0.137,0.027-0.277,0.032-0.417c0.017-0.143,0.024-0.281,0.034-0.425c0.017-0.139,0.024-0.277,0.036-0.422
				c0.019-0.142,0.024-0.284,0.033-0.423c0.032-0.22,0.047-0.443,0.059-0.666c0.016-0.169,0.037-0.341,0.044-0.506
				c0.013-0.139,0.03-0.281,0.038-0.421c0.015-0.139,0.03-0.274,0.038-0.417c0.017-0.141,0.034-0.278,0.041-0.417
				c0.02-0.14,0.032-0.278,0.042-0.421c0.019-0.138,0.032-0.278,0.039-0.417c0.021-0.144,0.036-0.278,0.047-0.423
				c0.019-0.138,0.032-0.28,0.046-0.419c0.031-0.196,0.05-0.392,0.065-0.586c0.024-0.17,0.044-0.339,0.059-0.507
				c0.018-0.14,0.037-0.278,0.046-0.416c0.02-0.143,0.04-0.279,0.052-0.419c0.021-0.139,0.038-0.276,0.051-0.413
				c0.022-0.14,0.039-0.284,0.052-0.423c0.026-0.136,0.043-0.272,0.056-0.415c0.028-0.142,0.041-0.276,0.061-0.423
				c0.039-0.205,0.071-0.416,0.088-0.619c0.022-0.139,0.046-0.278,0.06-0.417c0.024-0.136,0.049-0.272,0.063-0.414
				c0.026-0.139,0.049-0.274,0.064-0.415c0.03-0.137,0.05-0.276,0.067-0.415c0.031-0.14,0.052-0.274,0.071-0.418
				c0.038-0.162,0.064-0.331,0.087-0.497c0.038-0.165,0.067-0.333,0.088-0.504c0.03-0.137,0.056-0.271,0.075-0.411
				c0.032-0.138,0.058-0.274,0.079-0.414c0.032-0.137,0.058-0.276,0.079-0.413c0.032-0.136,0.059-0.272,0.084-0.414
				c0.043-0.168,0.079-0.331,0.105-0.505c0.039-0.153,0.075-0.308,0.099-0.465c0.036-0.137,0.066-0.274,0.09-0.41
				c0.038-0.143,0.067-0.274,0.094-0.413c0.036-0.136,0.069-0.271,0.095-0.408c0.04-0.138,0.072-0.272,0.102-0.415
				c0.054-0.176,0.1-0.354,0.133-0.542c0.04-0.132,0.075-0.271,0.104-0.402c0.041-0.134,0.077-0.275,0.109-0.408
				c0.04-0.138,0.077-0.273,0.111-0.408c0.043-0.132,0.079-0.271,0.114-0.406c0.058-0.169,0.106-0.345,0.146-0.515
				c0.047-0.137,0.09-0.28,0.122-0.423c0.048-0.135,0.089-0.271,0.123-0.402c0.045-0.136,0.088-0.271,0.124-0.402
				c0.049-0.13,0.088-0.268,0.127-0.399c0.05-0.139,0.095-0.279,0.134-0.424c0.066-0.165,0.123-0.337,0.167-0.509
				c0.05-0.132,0.095-0.268,0.136-0.399c0.051-0.132,0.096-0.262,0.136-0.396c0.052-0.132,0.099-0.267,0.142-0.4
				c0.055-0.126,0.098-0.26,0.143-0.39c0.073-0.18,0.141-0.352,0.197-0.54c0.052-0.126,0.104-0.256,0.146-0.394
				c0.054-0.124,0.107-0.258,0.152-0.392c0.056-0.128,0.104-0.258,0.152-0.392c0.058-0.124,0.106-0.256,0.156-0.386
				c0.058-0.13,0.11-0.262,0.157-0.394c0.083-0.176,0.159-0.359,0.224-0.546c0.057-0.124,0.113-0.256,0.159-0.39
				c0.057-0.126,0.115-0.254,0.164-0.383c0.06-0.126,0.116-0.26,0.165-0.388c0.062-0.126,0.116-0.254,0.167-0.384
				c0.061-0.125,0.116-0.253,0.167-0.385c0.077-0.15,0.145-0.308,0.21-0.469c0.079-0.157,0.154-0.318,0.219-0.482
				c0.062-0.127,0.12-0.255,0.175-0.385c0.062-0.124,0.12-0.249,0.176-0.381c0.062-0.122,0.12-0.248,0.176-0.377
				c0.063-0.128,0.124-0.256,0.178-0.38c0.066-0.123,0.123-0.249,0.18-0.376c0.066-0.122,0.122-0.248,0.18-0.375
				c0.11-0.195,0.208-0.402,0.296-0.611c0.064-0.12,0.127-0.248,0.186-0.38c0.064-0.121,0.129-0.249,0.188-0.374
				c0.065-0.122,0.129-0.249,0.189-0.375c0.065-0.122,0.127-0.251,0.187-0.377c0.068-0.122,0.13-0.249,0.191-0.375
				c0.068-0.117,0.128-0.247,0.189-0.37c0.068-0.12,0.127-0.248,0.189-0.369c0.079-0.141,0.15-0.282,0.22-0.429
				c0.114-0.193,0.222-0.404,0.32-0.614c0.068-0.125,0.135-0.245,0.195-0.377c0.069-0.121,0.138-0.245,0.197-0.374
				c0.067-0.12,0.136-0.241,0.196-0.371c0.07-0.123,0.137-0.241,0.199-0.371c0.069-0.117,0.135-0.242,0.199-0.37
				c0.069-0.122,0.135-0.245,0.198-0.371c0.07-0.119,0.132-0.242,0.197-0.368c0.071-0.117,0.136-0.241,0.201-0.362
				c0.071-0.119,0.135-0.245,0.198-0.368c0.085-0.139,0.158-0.285,0.234-0.43c0.134-0.22,0.261-0.446,0.375-0.681
				c0.07-0.121,0.145-0.234,0.208-0.36c0.003-0.013,0.005-0.021,0.012-0.031c0.06-0.106,0.124-0.203,0.179-0.315
				c0.009-0.014,0.016-0.04,0.028-0.058c0.052-0.096,0.116-0.184,0.167-0.28c0.016-0.029,0.025-0.061,0.04-0.088
				c0.047-0.088,0.105-0.169,0.152-0.253c0.021-0.038,0.036-0.08,0.057-0.119c0.045-0.076,0.093-0.146,0.137-0.227
				c0.026-0.044,0.044-0.095,0.069-0.143c0.04-0.066,0.086-0.128,0.125-0.196c0.03-0.053,0.05-0.115,0.082-0.17
				c0.036-0.057,0.075-0.117,0.109-0.172c0.038-0.065,0.064-0.13,0.099-0.197c0.03-0.048,0.066-0.094,0.094-0.144
				c0.043-0.073,0.075-0.149,0.114-0.223c0.025-0.04,0.054-0.077,0.079-0.117c0.047-0.082,0.084-0.167,0.129-0.245
				c0.021-0.037,0.045-0.068,0.066-0.099c0.054-0.088,0.093-0.182,0.145-0.268c0.015-0.029,0.035-0.051,0.05-0.079
				c0.058-0.097,0.103-0.191,0.156-0.287c0.013-0.019,0.025-0.036,0.036-0.053c0.063-0.101,0.116-0.207,0.174-0.31
				c0.005-0.015,0.014-0.021,0.021-0.033c0.069-0.107,0.124-0.223,0.188-0.334c0.002-0.004,0.004-0.004,0.006-0.008
				C74.073,65.586,74.176,65.385,74.285,65.188"/>
			
				<linearGradient id="SVGID_2_" gradientUnits="userSpaceOnUse" x1="123.1455" y1="34.1377" x2="76.7161" y2="89.1506" gradientTransform="matrix(1 0 0 -1 -8.3599 142.5547)">
				<stop  offset="0" style="stop-color:#FF7300"/>
				<stop  offset="1" style="stop-color:#FFC516"/>
			</linearGradient>
			<path fill="url(#SVGID_2_)" d="M121.081,118.214c-0.222-0.308-0.454-0.604-0.703-0.896c-0.223-0.304-0.463-0.604-0.713-0.894
				c-0.221-0.302-0.455-0.598-0.699-0.882c-0.215-0.304-0.445-0.591-0.687-0.876c-0.214-0.299-0.438-0.588-0.677-0.868
				c-0.209-0.298-0.429-0.583-0.663-0.859c-0.215-0.313-0.448-0.617-0.695-0.902c-0.229-0.337-0.474-0.653-0.74-0.959
				c-0.221-0.316-0.454-0.624-0.705-0.919c-0.2-0.289-0.416-0.571-0.643-0.838c-0.193-0.28-0.403-0.561-0.624-0.823
				c-0.215-0.33-0.457-0.641-0.71-0.939c-0.218-0.335-0.458-0.653-0.714-0.957c-0.21-0.316-0.433-0.624-0.679-0.911
				c-0.18-0.274-0.376-0.54-0.583-0.793c-0.213-0.338-0.453-0.652-0.705-0.955c-0.209-0.335-0.438-0.649-0.689-0.953
				c-0.188-0.293-0.386-0.58-0.604-0.842c-0.2-0.329-0.425-0.641-0.663-0.928c-0.199-0.335-0.419-0.649-0.662-0.944
				c-0.185-0.312-0.384-0.604-0.603-0.877c-0.193-0.333-0.411-0.644-0.647-0.94c-0.187-0.329-0.39-0.641-0.619-0.934
				c-0.181-0.318-0.385-0.625-0.608-0.905c-0.041-0.083-0.081-0.167-0.129-0.242c-0.141-0.239-0.296-0.461-0.458-0.677
				c-0.1-0.185-0.202-0.368-0.318-0.549c-0.089-0.134-0.186-0.26-0.284-0.39c-0.146-0.286-0.305-0.565-0.494-0.827
				c-0.023-0.035-0.049-0.059-0.07-0.088c-0.161-0.333-0.357-0.649-0.579-0.952c-0.157-0.333-0.345-0.658-0.563-0.966
				c-0.146-0.314-0.32-0.618-0.523-0.913c-0.152-0.352-0.338-0.69-0.562-1.014c-0.139-0.33-0.311-0.648-0.509-0.952
				c-0.134-0.331-0.298-0.647-0.492-0.955c-0.131-0.342-0.293-0.668-0.487-0.984c-0.127-0.348-0.289-0.687-0.484-1.005
				c-0.116-0.342-0.269-0.668-0.449-0.98c-0.113-0.345-0.255-0.674-0.431-0.988c-0.105-0.345-0.243-0.674-0.413-0.992
				c-0.106-0.364-0.245-0.719-0.417-1.052c-0.1-0.35-0.227-0.688-0.388-1.011c-0.09-0.35-0.214-0.688-0.364-1.01
				c-0.086-0.354-0.204-0.695-0.352-1.023c-0.084-0.379-0.206-0.743-0.361-1.094c-0.079-0.352-0.184-0.688-0.319-1.009
				c-0.075-0.368-0.186-0.727-0.32-1.066c-0.073-0.374-0.173-0.734-0.308-1.08c-0.069-0.357-0.167-0.706-0.293-1.04
				c-0.067-0.373-0.159-0.737-0.283-1.087c-0.005-0.036-0.007-0.069-0.015-0.111c-0.064-0.326-0.155-0.635-0.259-0.942
				c-0.025-0.148-0.045-0.297-0.079-0.446c-0.049-0.209-0.111-0.408-0.174-0.607c-0.04-0.262-0.094-0.521-0.166-0.78
				c-0.028-0.107-0.067-0.203-0.101-0.308c-0.055-0.358-0.125-0.721-0.238-1.079c-0.002-0.011-0.007-0.025-0.012-0.037
				c-0.052-0.342-0.131-0.681-0.23-1.021c-0.053-0.381-0.135-0.758-0.244-1.131c-0.05-0.368-0.124-0.738-0.229-1.105
				c-0.047-0.341-0.118-0.681-0.211-1.021c-0.047-0.388-0.127-0.772-0.229-1.152c-0.052-0.392-0.12-0.783-0.225-1.176
				c-0.045-0.318-0.106-0.637-0.185-0.957c-0.043-0.375-0.116-0.748-0.207-1.118c-0.046-0.394-0.118-0.785-0.215-1.179
				c-0.047-0.386-0.113-0.772-0.208-1.158c-0.043-0.342-0.104-0.683-0.183-1.02c-0.041-0.351-0.104-0.699-0.179-1.046
				c-0.043-0.381-0.109-0.756-0.193-1.133c-0.043-0.396-0.112-0.794-0.199-1.19c-0.046-0.377-0.11-0.755-0.191-1.132
				c-0.045-0.357-0.106-0.716-0.183-1.073c-0.041-0.36-0.102-0.725-0.18-1.087c-0.04-0.368-0.1-0.737-0.174-1.102
				c-0.042-0.372-0.098-0.743-0.173-1.109c-0.042-0.377-0.095-0.754-0.17-1.125c-0.043-0.381-0.109-0.752-0.182-1.129
				c-0.043-0.37-0.105-0.739-0.177-1.105c-0.042-0.374-0.104-0.743-0.175-1.115c-0.045-0.377-0.104-0.752-0.174-1.125
				c-0.038-0.326-0.083-0.651-0.143-0.977c-0.043-0.414-0.105-0.827-0.182-1.243c-0.041-0.379-0.101-0.756-0.168-1.136
				c-0.043-0.379-0.1-0.758-0.17-1.137c-0.044-0.384-0.096-0.767-0.167-1.144c-0.397-3.47-1.922-6.826-4.582-9.485
				c-6.25-6.251-16.386-6.251-22.637,0c-5.969,5.968-6.233,15.467-0.808,21.753c0.231,0.308,0.473,0.611,0.726,0.902
				c0.231,0.309,0.471,0.615,0.729,0.906c0.222,0.3,0.453,0.593,0.701,0.878c0.221,0.296,0.455,0.589,0.701,0.871
				c0.193,0.26,0.404,0.505,0.614,0.756c0.214,0.295,0.45,0.584,0.69,0.868c0.242,0.338,0.508,0.668,0.783,0.99
				c0.234,0.328,0.483,0.651,0.753,0.961c0.015,0.018,0.036,0.035,0.051,0.053c0.182,0.245,0.36,0.494,0.56,0.728
				c0.036,0.048,0.081,0.083,0.116,0.121c0.161,0.223,0.317,0.446,0.493,0.664c0.06,0.068,0.124,0.13,0.185,0.2
				c0.143,0.194,0.273,0.392,0.427,0.583c0.081,0.093,0.169,0.181,0.251,0.276c0.118,0.165,0.229,0.34,0.36,0.503
				c0.102,0.126,0.213,0.241,0.318,0.364c0.1,0.139,0.188,0.28,0.291,0.421c0.124,0.157,0.262,0.304,0.39,0.452
				c0.077,0.107,0.142,0.221,0.223,0.331c0.145,0.19,0.304,0.367,0.457,0.547c0.052,0.077,0.097,0.159,0.154,0.23
				c0.165,0.23,0.349,0.441,0.528,0.653c0.03,0.042,0.053,0.088,0.083,0.128c0.187,0.268,0.39,0.517,0.596,0.754
				c0.004,0.017,0.007,0.024,0.013,0.031c0.23,0.335,0.478,0.65,0.737,0.952c0.209,0.306,0.435,0.595,0.67,0.869
				c0.212,0.314,0.435,0.605,0.671,0.886c0.212,0.312,0.436,0.607,0.671,0.89c0.21,0.314,0.431,0.616,0.669,0.896
				c0.206,0.318,0.429,0.622,0.667,0.905c0.201,0.312,0.42,0.609,0.652,0.892c0.203,0.32,0.427,0.615,0.663,0.902
				c0.203,0.316,0.427,0.62,0.664,0.905c0.199,0.32,0.418,0.632,0.658,0.919c0.199,0.326,0.413,0.641,0.652,0.93
				c0.184,0.3,0.384,0.59,0.6,0.86c0.193,0.325,0.411,0.626,0.643,0.919c0.193,0.336,0.408,0.647,0.644,0.944
				c0.186,0.325,0.388,0.637,0.619,0.924c0.171,0.311,0.364,0.599,0.576,0.877c0.18,0.342,0.394,0.654,0.624,0.955
				c0.176,0.337,0.377,0.66,0.605,0.959c0.162,0.314,0.345,0.611,0.553,0.893c0.167,0.341,0.361,0.663,0.583,0.959
				c0.161,0.341,0.348,0.664,0.563,0.965c0.148,0.321,0.322,0.624,0.519,0.909c0.155,0.356,0.345,0.695,0.561,1.018
				c0.14,0.324,0.306,0.635,0.501,0.93c0.138,0.344,0.306,0.666,0.502,0.978c0.132,0.348,0.298,0.673,0.493,0.991
				c0.12,0.331,0.274,0.646,0.454,0.955c0.12,0.355,0.283,0.701,0.474,1.032c0.111,0.337,0.249,0.655,0.422,0.967
				c0.11,0.364,0.256,0.719,0.438,1.054c0.099,0.337,0.229,0.666,0.39,0.978c0.097,0.354,0.229,0.706,0.392,1.039
				c0.093,0.352,0.215,0.695,0.373,1.026c0.084,0.347,0.2,0.683,0.349,1.011c0.083,0.371,0.202,0.737,0.358,1.093
				c0.077,0.336,0.18,0.669,0.314,0.997c0.075,0.364,0.184,0.721,0.325,1.07c0.071,0.362,0.17,0.725,0.307,1.076
				c0.065,0.344,0.156,0.679,0.277,1.009c0.063,0.373,0.165,0.741,0.294,1.1c0.064,0.371,0.15,0.743,0.277,1.108
				c0.059,0.341,0.141,0.678,0.25,1.015c0.056,0.362,0.148,0.725,0.263,1.083c0.056,0.373,0.14,0.743,0.254,1.112
				c0.052,0.37,0.127,0.739,0.24,1.107c0.048,0.342,0.124,0.679,0.218,1.023c0.05,0.365,0.136,0.739,0.24,1.106
				c0.05,0.372,0.127,0.741,0.23,1.109c0.046,0.364,0.118,0.733,0.215,1.1c0.049,0.366,0.113,0.732,0.208,1.099
				c0.043,0.336,0.101,0.669,0.182,1.006c0.01,0.033,0.022,0.062,0.03,0.092c0.038,0.283,0.081,0.574,0.143,0.856
				c0.02,0.088,0.046,0.165,0.068,0.249c0.032,0.234,0.057,0.468,0.105,0.699c0.026,0.139,0.069,0.272,0.102,0.409
				c0.02,0.178,0.038,0.359,0.069,0.542c0.033,0.19,0.084,0.37,0.127,0.555c0.016,0.13,0.022,0.264,0.043,0.396
				c0.039,0.237,0.095,0.465,0.15,0.697c0.009,0.084,0.011,0.166,0.022,0.25c0.041,0.284,0.102,0.561,0.164,0.837
				c0.004,0.036,0.002,0.076,0.007,0.115c0.047,0.371,0.115,0.741,0.197,1.104c0.045,0.369,0.109,0.739,0.189,1.098
				c0.047,0.373,0.108,0.743,0.187,1.102c0.045,0.37,0.105,0.739,0.184,1.095c0.042,0.366,0.102,0.731,0.179,1.094
				c0.043,0.368,0.101,0.73,0.174,1.088c0.041,0.365,0.1,0.728,0.173,1.083c0.037,0.346,0.091,0.687,0.157,1.021
				c0.041,0.415,0.103,0.817,0.179,1.217c0.751,6.842,6.587,12.135,13.616,12.062c7.489-0.073,13.5-6.206,13.425-13.692
				C124.332,123.591,123.097,120.553,121.081,118.214"/>
			
				<linearGradient id="SVGID_3_" gradientUnits="userSpaceOnUse" x1="147.1865" y1="63.1289" x2="111.9729" y2="23.8386" gradientTransform="matrix(1 0 0 -1 -8.3599 142.5547)">
				<stop  offset="0" style="stop-color:#6E0097"/>
				<stop  offset="1" style="stop-color:#FF7300"/>
			</linearGradient>
			<path fill="url(#SVGID_3_)" d="M156.063,79.771c0.133-0.107,0.264-0.214,0.394-0.321c0.133-0.108,0.267-0.215,0.396-0.324
				c0.133-0.11,0.266-0.216,0.398-0.324c0.131-0.104,0.265-0.212,0.396-0.324c0.136-0.102,0.27-0.21,0.399-0.321
				c0.135-0.11,0.271-0.215,0.403-0.326c0.131-0.109,0.268-0.212,0.398-0.325c0.137-0.106,0.273-0.213,0.404-0.324
				c0.025-0.021,0.05-0.038,0.072-0.059c0.084-0.064,0.164-0.134,0.246-0.199c0.029-0.022,0.058-0.044,0.088-0.068
				c0.021-0.02,0.041-0.034,0.061-0.055c0.136-0.101,0.269-0.207,0.4-0.316c0.134-0.104,0.267-0.216,0.398-0.324
				c0.135-0.104,0.269-0.208,0.401-0.32c0.134-0.105,0.268-0.212,0.4-0.325c0.132-0.103,0.269-0.209,0.401-0.318
				c0.135-0.106,0.27-0.213,0.403-0.326c0.62-0.483,1.218-1.003,1.789-1.575c7.929-7.875,7.974-20.688,0.094-28.616
				c-7.88-7.926-20.694-7.972-28.624-0.092c-3.48,3.459-5.441,7.868-5.883,12.397c-0.015,0.146-0.038,0.296-0.05,0.443
				c-0.017,0.148-0.038,0.294-0.05,0.442c-0.02,0.146-0.04,0.297-0.055,0.447c-0.018,0.145-0.037,0.293-0.05,0.438
				c-0.019,0.154-0.039,0.302-0.054,0.444c-0.02,0.15-0.038,0.3-0.051,0.45c-0.022,0.145-0.04,0.296-0.054,0.445
				c-0.023,0.145-0.038,0.295-0.055,0.446c-0.022,0.148-0.037,0.299-0.054,0.445c-0.022,0.146-0.038,0.296-0.054,0.446
				c-0.023,0.15-0.038,0.298-0.055,0.448c-0.022,0.15-0.038,0.3-0.056,0.448c-0.036,0.24-0.064,0.481-0.088,0.723
				c-0.026,0.186-0.051,0.372-0.071,0.561c-0.019,0.146-0.04,0.291-0.055,0.44c-0.021,0.146-0.04,0.289-0.054,0.439
				c-0.023,0.15-0.04,0.297-0.058,0.441c-0.021,0.148-0.04,0.296-0.055,0.446c-0.022,0.145-0.039,0.295-0.058,0.441
				c-0.022,0.146-0.039,0.296-0.059,0.444c-0.022,0.148-0.039,0.293-0.058,0.441c-0.021,0.153-0.039,0.3-0.059,0.45
				c-0.022,0.146-0.041,0.296-0.059,0.444c-0.023,0.15-0.04,0.297-0.061,0.444c-0.04,0.245-0.073,0.491-0.097,0.739
				c-0.022,0.144-0.043,0.293-0.06,0.439c-0.022,0.146-0.043,0.295-0.062,0.439c-0.023,0.15-0.044,0.296-0.061,0.442
				c-0.024,0.145-0.044,0.295-0.062,0.439c-0.024,0.148-0.043,0.297-0.062,0.446c-0.026,0.146-0.043,0.293-0.064,0.443
				c-0.026,0.153-0.046,0.311-0.067,0.465c-0.013,0.088-0.021,0.172-0.035,0.26c-0.002,0.027-0.006,0.055-0.01,0.084
				c-0.024,0.14-0.04,0.282-0.06,0.423c-0.025,0.138-0.04,0.283-0.062,0.427c-0.027,0.139-0.04,0.279-0.063,0.426
				c-0.038,0.192-0.057,0.383-0.083,0.577c-0.047,0.256-0.084,0.516-0.118,0.775c-0.038,0.224-0.081,0.443-0.104,0.664
				c-0.019,0.138-0.049,0.273-0.066,0.412c-0.021,0.138-0.046,0.274-0.066,0.41c-0.02,0.137-0.048,0.274-0.065,0.409
				c-0.024,0.14-0.049,0.275-0.067,0.414c-0.027,0.139-0.049,0.274-0.068,0.414c-0.025,0.133-0.05,0.274-0.069,0.409
				c-0.028,0.14-0.047,0.276-0.071,0.418c-0.026,0.139-0.047,0.274-0.071,0.415c-0.028,0.137-0.046,0.272-0.071,0.412
				c-0.03,0.139-0.048,0.277-0.073,0.419c-0.043,0.191-0.069,0.382-0.101,0.574c-0.051,0.245-0.1,0.488-0.135,0.737
				c-0.03,0.161-0.07,0.318-0.092,0.479c-0.026,0.136-0.057,0.268-0.075,0.401c-0.03,0.133-0.059,0.267-0.081,0.404
				c-0.028,0.132-0.059,0.271-0.079,0.406c-0.032,0.134-0.059,0.267-0.081,0.402c-0.034,0.134-0.059,0.272-0.083,0.406
				c-0.032,0.136-0.059,0.272-0.085,0.406c-0.033,0.136-0.058,0.272-0.086,0.408c-0.056,0.214-0.097,0.434-0.138,0.653
				c-0.048,0.194-0.098,0.383-0.132,0.582c-0.03,0.128-0.065,0.26-0.09,0.394c-0.032,0.13-0.066,0.266-0.09,0.396
				c-0.037,0.132-0.067,0.264-0.096,0.394c-0.038,0.134-0.068,0.266-0.095,0.397c-0.038,0.134-0.07,0.271-0.1,0.402
				c-0.043,0.138-0.077,0.282-0.111,0.431c-0.069,0.214-0.127,0.437-0.176,0.662c-0.041,0.141-0.084,0.283-0.116,0.427
				c-0.04,0.124-0.079,0.256-0.107,0.384c-0.042,0.128-0.079,0.26-0.113,0.388c-0.043,0.132-0.081,0.26-0.116,0.389
				c-0.045,0.126-0.081,0.258-0.118,0.392c-0.063,0.179-0.116,0.356-0.168,0.541c-0.061,0.165-0.118,0.335-0.165,0.509
				c-0.043,0.125-0.09,0.249-0.125,0.379c-0.05,0.123-0.093,0.249-0.134,0.375c-0.046,0.129-0.091,0.251-0.133,0.381
				c-0.051,0.123-0.094,0.251-0.139,0.377c-0.081,0.187-0.152,0.377-0.217,0.58c-0.057,0.134-0.114,0.268-0.164,0.408
				c-0.052,0.117-0.104,0.241-0.152,0.366c-0.054,0.124-0.104,0.247-0.153,0.369c-0.059,0.117-0.111,0.242-0.16,0.362
				c-0.081,0.16-0.151,0.326-0.219,0.491c-0.077,0.149-0.15,0.3-0.216,0.455c-0.058,0.117-0.118,0.234-0.17,0.357
				c-0.062,0.117-0.12,0.234-0.176,0.352c-0.065,0.116-0.122,0.233-0.18,0.353c-0.086,0.146-0.165,0.299-0.24,0.456
				c-0.08,0.139-0.166,0.276-0.24,0.426c-0.006,0.014-0.008,0.021-0.014,0.035c-0.048,0.08-0.103,0.153-0.146,0.238
				c-0.019,0.036-0.031,0.069-0.049,0.105c-0.038,0.057-0.077,0.114-0.112,0.169c-0.031,0.059-0.058,0.117-0.088,0.176
				c-0.022,0.036-0.048,0.065-0.071,0.103c-0.049,0.076-0.088,0.157-0.133,0.235c-0.007,0.015-0.019,0.026-0.026,0.037
				c-0.086,0.128-0.16,0.258-0.234,0.388c-0.104,0.152-0.204,0.302-0.295,0.461c-0.075,0.112-0.15,0.218-0.218,0.335
				c-0.079,0.108-0.152,0.214-0.222,0.33c-0.081,0.104-0.154,0.216-0.226,0.325c-0.094,0.113-0.173,0.238-0.255,0.358
				c-0.129,0.165-0.25,0.326-0.363,0.498c-0.082,0.104-0.163,0.212-0.24,0.324c-0.083,0.101-0.166,0.203-0.242,0.312
				c-0.084,0.103-0.167,0.205-0.245,0.315c-0.088,0.104-0.167,0.208-0.247,0.312c-0.125,0.141-0.242,0.287-0.356,0.438
				c-0.114,0.13-0.232,0.267-0.338,0.404c-0.088,0.104-0.18,0.203-0.263,0.31c-0.089,0.103-0.177,0.197-0.262,0.304
				c-0.092,0.101-0.178,0.199-0.266,0.304c-0.092,0.095-0.18,0.197-0.266,0.298c-0.124,0.127-0.238,0.262-0.353,0.397
				c-0.146,0.148-0.286,0.295-0.418,0.45c-0.093,0.103-0.191,0.197-0.281,0.3c-0.093,0.099-0.189,0.194-0.277,0.297
				c-0.096,0.095-0.189,0.193-0.281,0.293c-0.096,0.099-0.191,0.193-0.279,0.289c-0.1,0.095-0.191,0.195-0.286,0.291
				c-0.122,0.115-0.23,0.234-0.343,0.353c-0.176,0.158-0.344,0.326-0.503,0.498c-0.105,0.103-0.214,0.201-0.315,0.312
				c-0.1,0.097-0.201,0.187-0.294,0.289c-0.102,0.093-0.2,0.187-0.298,0.285c-0.101,0.099-0.2,0.187-0.295,0.285
				c-0.102,0.094-0.199,0.188-0.296,0.282c-0.103,0.092-0.199,0.187-0.296,0.282c-0.103,0.088-0.199,0.187-0.296,0.277
				c-0.148,0.125-0.281,0.261-0.418,0.392c-0.188,0.161-0.371,0.33-0.547,0.504c-0.114,0.104-0.232,0.203-0.338,0.312
				c-0.104,0.096-0.212,0.184-0.311,0.284c-0.104,0.091-0.21,0.183-0.311,0.279c-0.105,0.092-0.21,0.184-0.312,0.276
				c-0.105,0.094-0.208,0.187-0.311,0.28c-0.107,0.088-0.207,0.182-0.309,0.276c-0.107,0.088-0.208,0.185-0.311,0.276
				c-0.107,0.088-0.206,0.185-0.31,0.271c-0.107,0.09-0.204,0.187-0.309,0.274c-0.113,0.092-0.213,0.19-0.32,0.286
				c-0.199,0.157-0.386,0.329-0.574,0.501c-0.199,0.169-0.397,0.328-0.584,0.507c-0.109,0.098-0.222,0.182-0.324,0.276
				c-0.109,0.096-0.219,0.188-0.32,0.28c-0.11,0.094-0.219,0.181-0.325,0.278c-0.013,0.011-0.029,0.021-0.043,0.033
				c-0.007,0.003-0.013,0.013-0.02,0.016c-0.068,0.057-0.137,0.112-0.203,0.169c-0.12,0.103-0.24,0.197-0.354,0.304
				c-0.116,0.095-0.23,0.192-0.344,0.291c-0.116,0.097-0.229,0.192-0.339,0.289c-0.116,0.093-0.229,0.192-0.343,0.291
				c-3.133,2.536-5.141,6.42-5.141,10.764c0,7.657,6.207,13.862,13.866,13.862c7.057,0,12.881-5.271,13.747-12.091
				c0.025-0.164,0.05-0.327,0.071-0.488c0.026-0.163,0.05-0.322,0.072-0.485c0.026-0.161,0.051-0.321,0.073-0.482
				c0.023-0.146,0.047-0.291,0.066-0.438c0.02-0.13,0.034-0.266,0.05-0.396c0.03-0.181,0.059-0.356,0.083-0.54
				c0.032-0.179,0.06-0.354,0.085-0.538c0.027-0.179,0.062-0.354,0.083-0.538c0.029-0.176,0.063-0.351,0.086-0.53
				c0.028-0.165,0.063-0.329,0.082-0.496c0.036-0.166,0.051-0.339,0.081-0.507c0.036-0.178,0.062-0.356,0.088-0.534
				c0.038-0.184,0.064-0.36,0.093-0.546c0.036-0.172,0.066-0.351,0.091-0.53c0.036-0.176,0.069-0.352,0.093-0.532
				c0.036-0.178,0.071-0.35,0.096-0.525c0.003-0.029,0.007-0.052,0.013-0.073c0.011-0.054,0.018-0.108,0.032-0.161
				c0.015-0.097,0.037-0.194,0.048-0.293c0.007-0.025,0.014-0.055,0.019-0.084c0.038-0.178,0.067-0.354,0.097-0.534
				c0.04-0.172,0.073-0.35,0.1-0.523c0.04-0.176,0.073-0.352,0.103-0.525c0.04-0.174,0.077-0.346,0.107-0.518
				c0.013-0.061,0.027-0.121,0.038-0.186c0.013-0.057,0.027-0.117,0.038-0.176c0.009-0.049,0.023-0.104,0.03-0.155
				c0.015-0.063,0.028-0.128,0.039-0.193c0.043-0.169,0.075-0.345,0.109-0.519c0.042-0.168,0.079-0.338,0.108-0.507
				c0.041-0.174,0.082-0.337,0.114-0.509c0.024-0.088,0.043-0.176,0.064-0.271c0.047-0.161,0.077-0.337,0.114-0.505
				c0.043-0.167,0.083-0.33,0.116-0.498c0.043-0.161,0.086-0.326,0.122-0.487c0.03-0.116,0.06-0.223,0.084-0.334
				c0.046-0.161,0.084-0.322,0.118-0.487c0.046-0.155,0.087-0.314,0.124-0.476c0.047-0.154,0.094-0.308,0.13-0.465
				c0.037-0.123,0.07-0.255,0.103-0.381c0.049-0.151,0.088-0.306,0.13-0.461c0.046-0.145,0.095-0.287,0.134-0.438
				c0.045-0.139,0.088-0.28,0.124-0.419c0.048-0.148,0.092-0.295,0.132-0.438c0.048-0.139,0.103-0.274,0.142-0.419
				c0.05-0.148,0.098-0.297,0.143-0.445c0.05-0.135,0.095-0.272,0.138-0.411c0.059-0.145,0.116-0.295,0.167-0.448
				c0.052-0.136,0.097-0.272,0.142-0.406c0.051-0.125,0.104-0.253,0.148-0.385c0.069-0.153,0.123-0.314,0.184-0.478
				c0.053-0.122,0.103-0.245,0.15-0.371c0.073-0.154,0.142-0.315,0.202-0.477c0.056-0.12,0.105-0.241,0.151-0.362
				c0.065-0.141,0.135-0.279,0.195-0.422c0.065-0.134,0.123-0.273,0.18-0.406c0.065-0.123,0.13-0.251,0.188-0.378
				c0.076-0.141,0.145-0.287,0.207-0.437c0.062-0.112,0.121-0.218,0.177-0.335c0.086-0.145,0.161-0.299,0.234-0.452
				c0.038-0.062,0.077-0.121,0.114-0.188c0.025-0.046,0.041-0.094,0.064-0.138c0.09-0.146,0.174-0.296,0.251-0.45
				c0.065-0.103,0.127-0.208,0.188-0.322c0.095-0.143,0.189-0.296,0.273-0.453c0.064-0.099,0.127-0.209,0.194-0.322
				c0.092-0.128,0.182-0.266,0.265-0.41c0.077-0.111,0.151-0.234,0.225-0.352c0.087-0.117,0.175-0.241,0.251-0.365
				c0.092-0.121,0.176-0.257,0.262-0.392c0.079-0.102,0.158-0.202,0.229-0.315c0.106-0.135,0.204-0.278,0.3-0.425
				c0.084-0.104,0.163-0.21,0.239-0.321c0.107-0.13,0.21-0.262,0.308-0.399c0.086-0.107,0.167-0.22,0.247-0.331
				c0.095-0.108,0.185-0.214,0.271-0.331c0.105-0.123,0.201-0.249,0.297-0.379c0.099-0.108,0.189-0.218,0.279-0.335
				c0.102-0.115,0.202-0.229,0.298-0.35c0.101-0.111,0.195-0.23,0.285-0.346c0.104-0.113,0.205-0.228,0.304-0.348
				c0.097-0.104,0.192-0.203,0.284-0.312c0.107-0.117,0.204-0.234,0.308-0.353c0.114-0.115,0.222-0.231,0.326-0.354
				c0.088-0.094,0.18-0.182,0.262-0.276c0.116-0.117,0.222-0.24,0.332-0.356c0.116-0.117,0.23-0.238,0.339-0.359
				c0.118-0.119,0.242-0.237,0.353-0.36c0.079-0.077,0.153-0.151,0.229-0.234c0.124-0.115,0.238-0.237,0.353-0.36
				c0.123-0.117,0.247-0.241,0.363-0.362c0.124-0.119,0.252-0.238,0.369-0.364c0.062-0.062,0.124-0.115,0.185-0.181
				c0.062-0.052,0.12-0.117,0.183-0.176c0.004-0.004,0.008-0.008,0.012-0.012c0.062-0.055,0.115-0.117,0.176-0.175
				c0.131-0.117,0.258-0.242,0.377-0.363c0.131-0.118,0.26-0.241,0.382-0.367c0.134-0.119,0.267-0.24,0.39-0.366
				c0.039-0.038,0.077-0.071,0.116-0.111c0.055-0.046,0.104-0.096,0.154-0.142c0.039-0.038,0.085-0.074,0.121-0.115
				c0.036-0.036,0.073-0.069,0.112-0.104c0.134-0.119,0.261-0.242,0.389-0.364c0.135-0.117,0.268-0.238,0.395-0.362
				c0.136-0.119,0.272-0.242,0.4-0.366c0.135-0.117,0.273-0.242,0.402-0.362c0.011-0.013,0.019-0.022,0.03-0.029
				c0-0.004,0.004-0.004,0.008-0.01c0.119-0.111,0.252-0.218,0.368-0.334c0.009-0.008,0.012-0.012,0.021-0.019
				c0.136-0.115,0.266-0.238,0.398-0.355c0.14-0.117,0.271-0.237,0.405-0.36c0.139-0.115,0.273-0.238,0.404-0.36
				c0.141-0.115,0.276-0.238,0.408-0.358c0.144-0.117,0.282-0.238,0.415-0.359c0.141-0.119,0.28-0.237,0.416-0.36
				c0.125-0.111,0.262-0.214,0.382-0.331c0.114-0.092,0.22-0.196,0.328-0.289c0.144-0.117,0.273-0.238,0.412-0.352
				c0.139-0.115,0.273-0.238,0.412-0.354c0.142-0.114,0.275-0.234,0.412-0.354c0.143-0.115,0.282-0.234,0.416-0.352
				c0.142-0.117,0.281-0.234,0.42-0.354c0.139-0.117,0.281-0.233,0.419-0.354c0.003-0.004,0.007-0.008,0.011-0.011
				c0.191-0.146,0.374-0.301,0.555-0.458c0.129-0.103,0.257-0.21,0.379-0.318c0.131-0.104,0.26-0.21,0.384-0.318
				c0.129-0.109,0.258-0.214,0.384-0.322c0.132-0.109,0.263-0.216,0.388-0.327c0.132-0.104,0.265-0.211,0.39-0.322
				c0.075-0.057,0.145-0.119,0.214-0.182c0.019-0.011,0.038-0.021,0.051-0.032c0.116-0.096,0.224-0.196,0.338-0.286
				c0.035-0.032,0.069-0.053,0.106-0.084c0.096-0.077,0.188-0.161,0.281-0.237c0.05-0.043,0.108-0.085,0.161-0.127
				c0.077-0.062,0.151-0.132,0.23-0.195c0.069-0.059,0.142-0.112,0.211-0.171c0.061-0.045,0.116-0.104,0.181-0.151
				c0.086-0.073,0.178-0.136,0.265-0.212c0.043-0.037,0.088-0.077,0.127-0.116c0.107-0.086,0.211-0.162,0.316-0.252
				c0.028-0.023,0.053-0.042,0.081-0.069c0.121-0.1,0.245-0.192,0.363-0.295c0.012-0.011,0.022-0.022,0.033-0.029
				c0.047-0.044,0.1-0.082,0.148-0.123C155.805,79.986,155.934,79.879,156.063,79.771"/>
			
				<linearGradient id="SVGID_4_" gradientUnits="userSpaceOnUse" x1="156.0566" y1="87.6377" x2="211.1664" y2="-0.5221" gradientTransform="matrix(1 0 0 -1 -8.3599 142.5547)">
				<stop  offset="0.0221" style="stop-color:#6E0097"/>
				<stop  offset="1" style="stop-color:#FF0009"/>
			</linearGradient>
			<path fill="url(#SVGID_4_)" d="M189.768,127.829c-0.114-0.146-0.232-0.284-0.354-0.427c-0.114-0.141-0.229-0.283-0.353-0.417
				c-0.112-0.141-0.226-0.284-0.347-0.419c-0.086-0.112-0.179-0.22-0.271-0.326c-0.113-0.146-0.229-0.285-0.353-0.423
				c-0.111-0.141-0.228-0.279-0.347-0.415c-0.109-0.143-0.219-0.28-0.338-0.415c-0.106-0.142-0.215-0.28-0.329-0.416
				c-0.104-0.134-0.204-0.264-0.317-0.39c-0.104-0.143-0.218-0.28-0.334-0.419c-0.104-0.136-0.209-0.271-0.323-0.402
				c-0.104-0.14-0.204-0.274-0.315-0.406c-0.104-0.14-0.207-0.278-0.321-0.414c-0.105-0.15-0.22-0.296-0.338-0.432
				c-0.096-0.14-0.197-0.27-0.306-0.396c-0.09-0.132-0.185-0.266-0.286-0.388c-0.111-0.163-0.224-0.32-0.346-0.465
				c-0.099-0.143-0.2-0.278-0.309-0.41c-0.086-0.132-0.178-0.254-0.271-0.377c-0.104-0.157-0.213-0.312-0.331-0.461
				c-0.098-0.146-0.198-0.293-0.31-0.432c-0.076-0.117-0.159-0.244-0.245-0.355c-0.103-0.174-0.216-0.335-0.337-0.488
				c-0.085-0.143-0.175-0.276-0.272-0.403c-0.084-0.143-0.174-0.279-0.271-0.415c-0.013-0.019-0.021-0.04-0.032-0.061
				c-0.086-0.151-0.181-0.289-0.278-0.423c-0.038-0.065-0.07-0.133-0.113-0.195c-0.035-0.054-0.073-0.104-0.108-0.157
				c-0.086-0.156-0.18-0.312-0.279-0.46c-0.009-0.013-0.021-0.023-0.023-0.032c-0.068-0.125-0.144-0.249-0.222-0.368
				c-0.086-0.169-0.184-0.331-0.29-0.496c-0.066-0.134-0.143-0.262-0.222-0.388c-0.078-0.172-0.175-0.333-0.273-0.498
				c-0.064-0.139-0.138-0.274-0.218-0.408c-0.077-0.166-0.161-0.335-0.258-0.496c-0.064-0.141-0.134-0.277-0.211-0.413
				c-0.071-0.174-0.149-0.339-0.241-0.5c-0.06-0.148-0.127-0.289-0.204-0.426c-0.062-0.165-0.131-0.328-0.216-0.485
				c-0.058-0.152-0.124-0.302-0.197-0.444c-0.054-0.15-0.114-0.297-0.183-0.438c-0.059-0.17-0.128-0.343-0.207-0.507
				c-0.048-0.146-0.105-0.297-0.17-0.436c-0.054-0.18-0.12-0.352-0.195-0.513c-0.043-0.153-0.1-0.297-0.157-0.438
				c-0.052-0.181-0.11-0.356-0.184-0.53c-0.041-0.145-0.09-0.288-0.146-0.434c-0.047-0.18-0.103-0.361-0.17-0.535
				c-0.04-0.146-0.083-0.287-0.133-0.43c-0.043-0.188-0.097-0.371-0.161-0.551c-0.034-0.139-0.075-0.274-0.116-0.414
				c-0.039-0.195-0.095-0.377-0.157-0.563c-0.03-0.146-0.069-0.293-0.114-0.434c-0.038-0.185-0.081-0.354-0.136-0.528
				c-0.034-0.178-0.079-0.359-0.131-0.531c-0.026-0.143-0.061-0.285-0.1-0.423c-0.034-0.195-0.077-0.382-0.127-0.569
				c-0.034-0.168-0.071-0.34-0.116-0.503c-0.027-0.157-0.058-0.311-0.1-0.461c-0.029-0.182-0.062-0.357-0.106-0.532
				c-0.004-0.017-0.004-0.031-0.004-0.044c-0.026-0.163-0.065-0.317-0.105-0.473c-0.013-0.067-0.017-0.134-0.028-0.205
				c-0.018-0.095-0.047-0.183-0.068-0.278c-0.021-0.13-0.037-0.265-0.062-0.395c-0.009-0.035-0.022-0.068-0.03-0.104
				c-0.023-0.176-0.054-0.354-0.095-0.525c-0.026-0.168-0.059-0.335-0.096-0.503c-0.026-0.174-0.055-0.343-0.092-0.515
				c-0.023-0.174-0.051-0.346-0.088-0.521c-0.024-0.178-0.046-0.354-0.085-0.529c-0.019-0.157-0.051-0.312-0.081-0.468
				c-0.021-0.176-0.05-0.352-0.088-0.529c-0.02-0.176-0.046-0.352-0.084-0.532c-0.021-0.182-0.045-0.36-0.08-0.538
				c-0.023-0.185-0.043-0.364-0.081-0.553c-0.016-0.128-0.033-0.264-0.059-0.392c-0.018-0.183-0.047-0.362-0.078-0.542
				c-0.021-0.185-0.049-0.36-0.083-0.549c-0.018-0.181-0.043-0.362-0.074-0.545c-0.021-0.187-0.045-0.368-0.079-0.553
				c-0.019-0.19-0.039-0.374-0.07-0.562c-0.021-0.188-0.042-0.371-0.075-0.562c-0.01-0.093-0.022-0.19-0.037-0.285
				c-0.02-0.185-0.046-0.37-0.075-0.553c-0.018-0.185-0.041-0.37-0.071-0.553c-0.018-0.188-0.043-0.373-0.073-0.56
				c-0.015-0.188-0.04-0.372-0.068-0.562c-0.02-0.185-0.041-0.371-0.071-0.562c-0.018-0.19-0.039-0.377-0.068-0.567
				c-0.02-0.187-0.037-0.381-0.065-0.569c-0.023-0.188-0.04-0.381-0.07-0.567c-0.003-0.046-0.011-0.093-0.015-0.139
				c-0.003-0.046-0.011-0.096-0.016-0.141c-0.015-0.101-0.021-0.194-0.039-0.297c-0.004-0.038-0.009-0.077-0.015-0.117
				c-0.013-0.187-0.041-0.371-0.063-0.558c-0.015-0.192-0.042-0.374-0.067-0.562c-0.016-0.188-0.039-0.377-0.063-0.563
				c-0.015-0.19-0.04-0.377-0.064-0.567c-0.015-0.187-0.039-0.373-0.063-0.562c-0.016-0.196-0.037-0.381-0.063-0.569
				c-0.017-0.194-0.04-0.379-0.06-0.567c-0.02-0.193-0.039-0.384-0.064-0.574c-0.021-0.194-0.035-0.379-0.063-0.575
				c-0.019-0.188-0.036-0.38-0.06-0.57c-0.025-0.19-0.036-0.381-0.064-0.577c-0.02-0.185-0.032-0.371-0.058-0.558
				c-0.007-0.088-0.022-0.18-0.03-0.271c-0.011-0.065-0.011-0.143-0.022-0.212c-0.011-0.187-0.04-0.366-0.058-0.553
				c-0.015-0.187-0.04-0.369-0.061-0.557c-0.011-0.191-0.039-0.377-0.06-0.566c-0.011-0.188-0.036-0.377-0.057-0.564
				c-0.013-0.19-0.036-0.375-0.056-0.563c-0.015-0.161-0.032-0.322-0.047-0.486c-0.018-0.234-0.039-0.461-0.065-0.692
				c-0.015-0.183-0.036-0.36-0.055-0.541c-0.018-0.176-0.037-0.355-0.057-0.538c-0.017-0.184-0.034-0.36-0.052-0.538
				c-0.015-0.184-0.034-0.36-0.057-0.547c-0.015-0.182-0.031-0.361-0.053-0.546c-0.015-0.178-0.033-0.36-0.054-0.542
				c-0.016-0.188-0.032-0.365-0.053-0.547c-0.01-0.121-0.024-0.245-0.036-0.368c-0.015-0.181-0.036-0.36-0.054-0.539
				c-0.013-0.184-0.038-0.362-0.054-0.542c-0.016-0.182-0.036-0.358-0.054-0.542c-0.015-0.179-0.035-0.364-0.052-0.545
				c-0.015-0.182-0.034-0.358-0.055-0.542c-0.015-0.185-0.031-0.36-0.053-0.549c-0.017-0.178-0.032-0.362-0.052-0.542
				c-0.015-0.187-0.032-0.365-0.053-0.549c-0.016-0.183-0.031-0.364-0.053-0.549c-0.015-0.182-0.03-0.364-0.051-0.553
				c-0.016-0.182-0.033-0.366-0.054-0.545c-0.016-0.186-0.03-0.37-0.051-0.553c-0.015-0.182-0.032-0.362-0.051-0.55
				c-0.02-0.185-0.033-0.369-0.054-0.552c-0.005-0.077-0.012-0.156-0.023-0.231c-0.013-0.185-0.031-0.362-0.048-0.547
				c-0.016-0.183-0.036-0.36-0.054-0.543c-0.013-0.184-0.032-0.362-0.05-0.542c-0.015-0.188-0.034-0.37-0.051-0.553
				c-0.016-0.183-0.033-0.362-0.053-0.545c-0.013-0.183-0.031-0.366-0.052-0.551c-0.012-0.181-0.032-0.36-0.049-0.545
				c-0.016-0.185-0.032-0.368-0.052-0.553c-0.014-0.179-0.03-0.364-0.05-0.549c-0.015-0.183-0.034-0.364-0.052-0.547
				c-0.376-4.667-2.345-9.229-5.915-12.797c-7.982-7.98-20.926-7.98-28.907,0c-7.83,7.823-7.977,20.414-0.453,28.42
				c0.114,0.132,0.233,0.255,0.352,0.385c0.114,0.126,0.234,0.254,0.353,0.379c0.114,0.124,0.234,0.252,0.353,0.379
				c0.114,0.126,0.234,0.252,0.351,0.379c0.116,0.128,0.238,0.254,0.354,0.38c0.2,0.231,0.41,0.45,0.621,0.674
				c0.13,0.138,0.256,0.28,0.387,0.417c0.005,0.008,0.012,0.012,0.016,0.015c0.104,0.115,0.207,0.23,0.316,0.345
				c0.011,0.015,0.021,0.021,0.03,0.029c0.103,0.113,0.196,0.219,0.301,0.329c0.018,0.017,0.032,0.033,0.045,0.048
				c0.096,0.103,0.188,0.208,0.285,0.314c0.021,0.021,0.042,0.04,0.06,0.061c0.093,0.097,0.179,0.195,0.273,0.298
				c0.023,0.025,0.052,0.052,0.075,0.077c0.084,0.092,0.168,0.187,0.256,0.281c0.03,0.031,0.061,0.059,0.091,0.096
				c0.083,0.086,0.158,0.176,0.238,0.264c0.039,0.04,0.073,0.073,0.11,0.113c0.077,0.08,0.146,0.165,0.224,0.249
				c0.039,0.04,0.084,0.084,0.125,0.124c0.068,0.077,0.133,0.154,0.202,0.23c0.049,0.052,0.101,0.096,0.146,0.146
				c0.062,0.071,0.12,0.143,0.188,0.211c0.051,0.057,0.108,0.111,0.161,0.17c0.056,0.059,0.114,0.13,0.171,0.19
				c0.06,0.065,0.117,0.122,0.178,0.187c0.051,0.055,0.099,0.117,0.154,0.176c0.061,0.069,0.129,0.136,0.194,0.203
				c0.045,0.05,0.09,0.104,0.133,0.155c0.069,0.075,0.145,0.146,0.214,0.224c0.04,0.042,0.079,0.093,0.118,0.136
				c0.075,0.084,0.154,0.16,0.229,0.245c0.034,0.034,0.066,0.076,0.101,0.117c0.084,0.089,0.168,0.17,0.253,0.26
				c0.025,0.034,0.051,0.067,0.081,0.099c0.086,0.101,0.177,0.19,0.267,0.283c0.023,0.024,0.039,0.05,0.062,0.075
				c0.093,0.106,0.193,0.203,0.286,0.308c0.018,0.015,0.03,0.036,0.046,0.05c0.099,0.115,0.2,0.221,0.305,0.329
				c0.01,0.011,0.018,0.019,0.024,0.031c0.107,0.122,0.215,0.237,0.326,0.353c0,0.004,0.004,0.004,0.005,0.004
				c0.179,0.207,0.361,0.41,0.551,0.603c0.113,0.128,0.226,0.254,0.346,0.377c0.114,0.126,0.227,0.254,0.345,0.371
				c0.114,0.13,0.227,0.258,0.347,0.379c0.114,0.126,0.229,0.26,0.347,0.381c0.114,0.124,0.228,0.252,0.345,0.375
				c0.116,0.13,0.231,0.258,0.351,0.379c0.114,0.132,0.229,0.26,0.347,0.388c0.212,0.234,0.43,0.473,0.653,0.695
				c0.115,0.123,0.218,0.255,0.336,0.372c0.111,0.118,0.216,0.247,0.33,0.36c0.11,0.117,0.216,0.249,0.33,0.362
				c0.11,0.122,0.211,0.251,0.329,0.364c0.111,0.119,0.216,0.247,0.33,0.364c0.111,0.124,0.216,0.247,0.33,0.365
				c0.108,0.123,0.216,0.247,0.33,0.364c0.112,0.123,0.215,0.251,0.329,0.368c0.111,0.121,0.22,0.245,0.332,0.362
				c0.108,0.126,0.217,0.251,0.332,0.37c0.108,0.12,0.216,0.245,0.33,0.367c0.109,0.123,0.219,0.245,0.333,0.368
				c0.106,0.124,0.22,0.243,0.33,0.366c0.11,0.126,0.219,0.245,0.333,0.367c0.107,0.13,0.22,0.251,0.334,0.372
				c0.106,0.124,0.219,0.251,0.329,0.373c0.107,0.125,0.22,0.249,0.334,0.37c0.106,0.13,0.219,0.248,0.333,0.371
				c0.105,0.13,0.22,0.251,0.333,0.371c0.146,0.19,0.312,0.362,0.472,0.536c0.182,0.219,0.365,0.438,0.562,0.636
				c0.107,0.124,0.209,0.252,0.322,0.366c0.107,0.122,0.209,0.25,0.323,0.369c0.104,0.121,0.208,0.249,0.318,0.362
				c0.107,0.121,0.211,0.249,0.322,0.366c0.106,0.128,0.212,0.251,0.324,0.369c0.104,0.125,0.21,0.253,0.322,0.372
				c0.104,0.126,0.21,0.251,0.324,0.371c0.104,0.128,0.211,0.251,0.322,0.374c0.104,0.128,0.212,0.252,0.322,0.373
				c0.103,0.13,0.212,0.249,0.322,0.377c0.103,0.13,0.216,0.252,0.326,0.375c0.127,0.17,0.268,0.322,0.407,0.478
				c0.149,0.192,0.301,0.373,0.464,0.547c0.104,0.127,0.201,0.255,0.314,0.372c0.1,0.124,0.201,0.252,0.312,0.371
				c0.104,0.13,0.205,0.255,0.315,0.375c0.099,0.132,0.202,0.257,0.312,0.377c0.102,0.13,0.206,0.259,0.315,0.379
				c0.099,0.13,0.204,0.259,0.312,0.379c0.099,0.134,0.204,0.264,0.313,0.387c0.116,0.155,0.237,0.302,0.361,0.446
				c0.127,0.174,0.265,0.34,0.404,0.501c0.1,0.13,0.196,0.262,0.306,0.383c0.098,0.13,0.196,0.256,0.304,0.379
				c0.097,0.134,0.198,0.266,0.306,0.388c0.095,0.134,0.196,0.266,0.303,0.388c0.096,0.138,0.195,0.264,0.3,0.396
				c0.116,0.17,0.244,0.333,0.379,0.49c0.098,0.144,0.202,0.286,0.313,0.416c0.093,0.135,0.19,0.267,0.293,0.392
				c0.095,0.139,0.191,0.271,0.291,0.398c0.094,0.14,0.191,0.271,0.292,0.401c0.089,0.137,0.188,0.271,0.289,0.4
				c0.106,0.172,0.221,0.335,0.346,0.494c0.088,0.134,0.183,0.27,0.28,0.399c0.088,0.141,0.182,0.274,0.279,0.409
				c0.084,0.14,0.178,0.276,0.275,0.412c0.096,0.167,0.197,0.327,0.312,0.476c0.084,0.145,0.172,0.28,0.27,0.416
				c0.082,0.141,0.17,0.279,0.265,0.413c0.078,0.15,0.166,0.289,0.26,0.429c0.086,0.159,0.179,0.32,0.282,0.472
				c0.075,0.145,0.16,0.287,0.25,0.421c0.077,0.15,0.157,0.293,0.247,0.432c0.071,0.148,0.152,0.295,0.24,0.433
				c0.076,0.166,0.161,0.323,0.257,0.476c0.069,0.149,0.145,0.293,0.23,0.438c0.066,0.149,0.139,0.298,0.219,0.438
				c0.066,0.15,0.136,0.306,0.216,0.445c0.067,0.166,0.146,0.323,0.23,0.484c0.058,0.15,0.128,0.299,0.204,0.449
				c0.059,0.149,0.126,0.304,0.197,0.449c0.062,0.165,0.129,0.334,0.207,0.494c0.054,0.154,0.116,0.308,0.188,0.454
				c0.052,0.157,0.113,0.312,0.185,0.458c0.047,0.157,0.104,0.314,0.17,0.465c0.052,0.168,0.116,0.34,0.186,0.509
				c0.047,0.157,0.104,0.309,0.165,0.465c0.043,0.157,0.096,0.312,0.153,0.465c0.047,0.175,0.1,0.351,0.165,0.52
				c0.039,0.161,0.094,0.322,0.153,0.479c0.038,0.157,0.086,0.314,0.14,0.472c0.037,0.157,0.08,0.315,0.133,0.473
				c0.039,0.164,0.082,0.331,0.135,0.492c0.036,0.183,0.086,0.36,0.145,0.536c0.033,0.163,0.072,0.318,0.124,0.481
				c0.029,0.155,0.066,0.312,0.116,0.476c0.029,0.155,0.064,0.314,0.109,0.472c0.038,0.203,0.08,0.397,0.136,0.599
				c0.034,0.159,0.065,0.322,0.11,0.481c0.03,0.163,0.062,0.324,0.107,0.479c0.029,0.165,0.058,0.324,0.101,0.481
				c0.024,0.161,0.057,0.318,0.096,0.479c0.024,0.157,0.057,0.318,0.094,0.476c0.03,0.216,0.069,0.434,0.12,0.653
				c0.003,0.004,0.005,0.009,0.007,0.017c0.021,0.132,0.038,0.264,0.069,0.398c0.004,0.033,0.015,0.059,0.023,0.088
				c0.015,0.11,0.027,0.22,0.05,0.333c0.008,0.052,0.027,0.104,0.038,0.15c0.011,0.092,0.019,0.18,0.033,0.268
				c0.017,0.073,0.038,0.146,0.051,0.22c0.011,0.062,0.011,0.128,0.024,0.197c0.017,0.095,0.04,0.19,0.06,0.28
				c0.006,0.045,0.006,0.091,0.014,0.137c0.017,0.117,0.043,0.228,0.067,0.348c0,0.022,0,0.044,0.005,0.066
				c0.018,0.139,0.046,0.274,0.073,0.409c0,0.004,0,0.008,0,0.012c0.026,0.252,0.068,0.497,0.118,0.739
				c0.023,0.168,0.043,0.331,0.077,0.492c0.022,0.166,0.045,0.325,0.075,0.488c0.024,0.165,0.045,0.326,0.074,0.487
				c0.02,0.164,0.04,0.329,0.073,0.488c0.015,0.163,0.04,0.324,0.07,0.483c0.015,0.164,0.039,0.323,0.064,0.484
				c0.02,0.161,0.044,0.322,0.067,0.483c0.407,4.318,4.037,7.699,8.465,7.699c4.696,0,8.501-3.803,8.501-8.503
				C191.955,131.32,191.123,129.335,189.768,127.829"/>
		</g>
	</g>
</g>
<g id="Isolation_Mode">
</g>
</svg>
