<?xml version="1.0" encoding="utf-8"?>
<!-- Generator: Adobe Illustrator 25.2.3, SVG Export Plug-In . SVG Version: 6.00 Build 0)  -->
<svg version="1.1" id="Warstwa_1" xmlns="http://www.w3.org/2000/svg" xmlns:xlink="http://www.w3.org/1999/xlink" x="0px" y="0px"
	 viewBox="0 0 305.3 55.9" style="enable-background:new 0 0 305.3 55.9;" xml:space="preserve">
<style type="text/css">
	.st0{enable-background:new    ;}
	.st1{fill:#1D1D1B;}
	.st2{fill:#34438A;}
	.st3{fill-rule:evenodd;clip-rule:evenodd;fill:#34438A;}
</style>
<g class="st0">
	<path class="st1" d="M66.7,19.8h2.9l7,13.8h0.1V19.8h1.8v15.4h-3l-6.9-13.8h-0.1v13.8h-1.8V19.8z"/>
	<path class="st1" d="M81.8,29.6c0-3.7,2.5-6.1,5.5-6.1c3.5,0,5.4,2.4,5.4,5.9V30h-9.2c0,2.6,1.5,4,3.9,4c1.6,0,3.1-0.9,3.5-2.5
		l1.7,0.4c-0.6,2.1-2.5,3.7-5.2,3.7C84,35.5,81.8,33.1,81.8,29.6z M91,28.6c-0.1-2.4-1.8-3.5-3.7-3.5c-1.9,0-3.6,1.4-3.7,3.5H91z"/>
	<path class="st1" d="M96.9,32v-6.7h-2.2v-1.5H97v-3.3h1.6v3.3h3.5v1.5h-3.5V32c0,1.2,0.5,1.8,1.7,1.8h1.7v1.5h-1.6
		C98.3,35.3,96.9,34.3,96.9,32z"/>
	<path class="st1" d="M104,23.8h1.9l2.8,9.8h0.1l2.8-9.8h2.4l2.8,9.8h0.1l2.8-9.8h1.9l-3.6,11.4h-2.4l-2.8-9.8h-0.1l-2.8,9.8h-2.4
		L104,23.8z"/>
	<path class="st1" d="M123.2,29.5c0-3.5,2.6-6,6-6c3.5,0,6,2.6,6,6s-2.6,6-6,6S123.2,33,123.2,29.5z M133.4,29.5
		c0-2.5-1.7-4.4-4.2-4.4S125,27,125,29.5c0,2.6,1.7,4.4,4.2,4.4C131.6,34,133.4,32.1,133.4,29.5z"/>
	<path class="st1" d="M138.2,23.8h1.7v1.9h0.1c0.3-1,1.5-2.2,3.1-2.2h0.7v1.7h-1c-2.1,0-2.9,1.7-2.9,3.9v6.1h-1.7V23.8z"/>
	<path class="st1" d="M146.8,18.7h1.7v9.5h2l3.2-4.4h2l-3.8,5.1V29l4,6.2H154l-3.4-5.4h-2.1v5.4h-1.7V18.7z"/>
	<path class="st1" d="M164.9,19.8h5.1c2.8,0,4.7,1.8,4.7,4.6c0,2.8-2,4.7-4.7,4.7h-3.3v6.1h-1.8V19.8z M169.8,27.6
		c1.8,0,3-1.3,3-3.1c0-1.8-1.2-3-3-3h-3.1v6.1H169.8z"/>
	<path class="st1" d="M176.6,29.6c0-3.7,2.5-6.1,5.5-6.1c3.5,0,5.4,2.4,5.4,5.9V30h-9.2c0,2.6,1.5,4,3.9,4c1.6,0,3.1-0.9,3.5-2.5
		l1.7,0.4c-0.6,2.1-2.5,3.7-5.2,3.7C178.8,35.5,176.6,33.1,176.6,29.6z M185.8,28.6c-0.1-2.4-1.8-3.5-3.7-3.5
		c-1.9,0-3.6,1.4-3.7,3.5H185.8z"/>
	<path class="st1" d="M190.7,23.8h1.7v1.9h0.1c0.3-1,1.5-2.2,3.1-2.2h0.7v1.7h-1c-2.1,0-2.9,1.7-2.9,3.9v6.1h-1.7V23.8z"/>
	<path class="st1" d="M198.6,32.1l1.6-0.4c0.1,1.5,1.2,2.3,2.9,2.3c1.7,0,2.7-0.8,2.7-2c0-3.2-6.8-0.8-6.8-5.3
		c0-1.9,1.7-3.2,4.1-3.2c2,0,3.9,1.1,4.2,3.2l-1.5,0.4c-0.2-1.3-1.3-2.2-2.8-2.2c-1.4,0-2.4,0.7-2.4,1.7c0,2.9,6.9,0.5,6.9,5.2
		c0,2.2-1.8,3.6-4.4,3.6C200.5,35.5,198.9,34.1,198.6,32.1z"/>
	<path class="st1" d="M210.9,23.8h1.7v1.8h0.1c0.3-0.4,1.4-2.1,3.9-2.1c3.3,0,5.6,2.5,5.6,6c0,3.5-2.2,6-5.5,6
		c-2.4,0-3.5-1.4-3.9-2.1h-0.1v6.9h-1.7V23.8z M220.4,29.5c0-2.7-1.7-4.4-3.9-4.4c-2.4,0-3.9,2-3.9,4.4c0,2.8,1.8,4.4,3.9,4.4
		C218.8,34,220.4,32.1,220.4,29.5z"/>
	<path class="st1" d="M224.4,29.6c0-3.7,2.5-6.1,5.5-6.1c3.5,0,5.4,2.4,5.4,5.9V30h-9.2c0,2.6,1.5,4,3.9,4c1.6,0,3.1-0.9,3.5-2.5
		l1.7,0.4c-0.6,2.1-2.5,3.7-5.2,3.7C226.5,35.5,224.4,33.1,224.4,29.6z M233.6,28.6c-0.1-2.4-1.8-3.5-3.7-3.5
		c-1.9,0-3.6,1.4-3.7,3.5H233.6z"/>
	<path class="st1" d="M237.5,29.5c0-3.4,2.5-6,5.9-6c2.5,0,4.7,1.5,5.3,4L247,28c-0.3-1.7-1.8-2.9-3.5-2.9c-2.4,0-4.1,1.9-4.1,4.4
		c0,2.6,1.7,4.4,4.1,4.4c1.8,0,3.2-1.1,3.5-2.9l1.7,0.4c-0.6,2.6-2.8,4-5.3,4C240,35.5,237.5,32.9,237.5,29.5z"/>
	<path class="st1" d="M252.9,32v-6.7h-2.2v-1.5h2.3v-3.3h1.6v3.3h3.5v1.5h-3.5V32c0,1.2,0.5,1.8,1.7,1.8h1.7v1.5h-1.6
		C254.3,35.3,252.9,34.3,252.9,32z"/>
	<path class="st1" d="M262.8,25.3h-2.2v-1.5h3.9v11.4h-1.7V25.3z M262.4,20.5c0-0.7,0.5-1.3,1.3-1.3c0.7,0,1.3,0.5,1.3,1.3
		c0,0.7-0.5,1.3-1.3,1.3C262.9,21.7,262.4,21.2,262.4,20.5z"/>
	<path class="st1" d="M267.6,23.8h1.9l3.5,9.8h0.1l3.4-9.8h1.9l-4.2,11.4h-2.3L267.6,23.8z"/>
	<path class="st1" d="M279.9,29.6c0-3.7,2.5-6.1,5.5-6.1c3.5,0,5.4,2.4,5.4,5.9V30h-9.2c0,2.6,1.5,4,3.9,4c1.6,0,3.1-0.9,3.5-2.5
		l1.7,0.4c-0.6,2.1-2.5,3.7-5.2,3.7C282.1,35.5,279.9,33.1,279.9,29.6z M289.1,28.6c-0.1-2.4-1.8-3.5-3.7-3.5
		c-1.9,0-3.6,1.4-3.7,3.5H289.1z"/>
</g>
<g>
	<g>
		<g>
			<g>
				<polygon class="st2" points="28.1,52.8 3,28 28.4,2.2 53.6,27.4 53.1,27.9 28.4,3.2 4,28 28.6,52.4 				"/>
				<path class="st3" d="M28.4,52.1"/>
				
					<rect x="13.1" y="13.3" transform="matrix(0.3395 -0.9406 0.9406 0.3395 3.3339 32.0386)" class="st2" width="22.7" height="0.7"/>
				<polygon class="st2" points="16.1,40.2 15.8,39.5 26.8,34.7 27.1,35.4 				"/>
				<polygon class="st2" points="40.5,40.8 37.9,29.4 38.6,29.2 40.9,39.3 52.3,27.7 16.7,15.4 21,24.2 20.4,24.5 15.4,14.1 
					53.5,27.4 				"/>
				<path class="st3" d="M15.9,39.8"/>
				<path class="st3" d="M20.7,24.4"/>
				<path class="st2" d="M28,52.2L26.6,35l-6.4-10.8l21.4-9.8L27.3,35.2l1.4,16.9L28,52.2z M21.2,24.6l5.8,9.8l12.6-18.2L21.2,24.6z
					"/>
				<path class="st3" d="M38.3,29.3"/>
				<polygon class="st2" points="40.6,40.4 26.8,35.4 2.1,27.4 20.6,24 20.8,24.7 5,27.6 27.1,34.7 40.8,39.7 				"/>
				<path class="st3" d="M16,15.3"/>
			</g>
		</g>
		<g>
			<g>
				<path class="st3" d="M54.5,26c0.9,0.9,0.9,2.4,0,3.3s-2.4,0.9-3.3,0c-0.9-0.9-0.9-2.4,0-3.3C52.2,25.1,53.6,25.1,54.5,26z"/>
				<path class="st3" d="M30,1.2c1,1,1,2.5,0,3.5s-2.5,1-3.5,0s-1-2.5,0-3.5C27.5,0.3,29,0.3,30,1.2z"/>
				<path class="st3" d="M42.3,13.6c1,1,1,2.5,0,3.5s-2.5,1-3.5,0s-1-2.5,0-3.5S41.4,12.6,42.3,13.6z"/>
				<path class="st3" d="M39,31.7c-1.3,0.4-2.7-0.4-3.1-1.7c-0.4-1.3,0.4-2.7,1.7-3.1s2.7,0.4,3.1,1.7C41,29.9,40.3,31.3,39,31.7z"
					/>
				<path class="st3" d="M27.6,37.3c-1.3,0.4-2.7-0.4-3.1-1.7s0.4-2.7,1.7-3.1c1.3-0.4,2.7,0.4,3.1,1.7
					C29.7,35.6,28.9,36.9,27.6,37.3z"/>
				<path class="st3" d="M17.2,17.5c-1.2,0.6-2.7,0.2-3.4-1c-0.6-1.2-0.2-2.7,1-3.4c1.2-0.6,2.7-0.2,3.4,1
					C18.9,15.4,18.4,16.9,17.2,17.5z"/>
				<path class="st3" d="M30.1,50.4c1,1,1,2.5,0,3.5s-2.5,1-3.5,0s-1-2.5,0-3.5S29.2,49.4,30.1,50.4z"/>
				<path class="st3" d="M5.5,25.8c1,1,1,2.5,0,3.5s-2.5,1-3.5,0s-1-2.5,0-3.5C2.9,24.8,4.5,24.8,5.5,25.8z"/>
				<path class="st3" d="M18.2,37.7c1.2,1.2,1.2,3.1,0,4.2s-3.1,1.2-4.2,0s-1.2-3.1,0-4.2C15.1,36.6,17,36.6,18.2,37.7z"/>
				<path class="st3" d="M55.1,29.6c-1.2,1.2-3.1,1.2-4.2,0c-1.2-1.2-1.2-3.1,0-4.2c1.2-1.2,3.1-1.2,4.2,0
					C56.3,26.6,56.3,28.5,55.1,29.6z"/>
				<path class="st3" d="M42.3,41.5c-0.9,0.9-2.4,0.9-3.3,0c-0.9-0.9-0.9-2.4,0-3.3c0.9-0.9,2.4-0.9,3.3,0
					C43.2,39.1,43.2,40.6,42.3,41.5z"/>
				<path class="st3" d="M21.4,26.8c-1.3,0.4-2.7-0.4-3.1-1.7c-0.4-1.3,0.4-2.7,1.7-3.1c1.3-0.4,2.7,0.4,3.1,1.7
					S22.7,26.4,21.4,26.8z"/>
			</g>
		</g>
	</g>
</g>
</svg>
