<?xml version="1.0" encoding="UTF-8"?>
<svg width="512px" height="512px" viewBox="0 0 512 512" version="1.1" xmlns="http://www.w3.org/2000/svg" xmlns:xlink="http://www.w3.org/1999/xlink">
    <!-- Generator: Sketch 44.1 (41455) - http://www.bohemiancoding.com/sketch -->
    <title>pitney-bowes</title>
    <desc>Created with Sketch.</desc>
    <defs>
        <linearGradient x1="14.6584651%" y1="14.6361035%" x2="85.341979%" y2="85.3714483%" id="linearGradient-1">
            <stop stop-color="#C869A8" offset="20%"></stop>
            <stop stop-color="#6E7EBB" offset="50%"></stop>
            <stop stop-color="#00BCF1" offset="80%"></stop>
        </linearGradient>
    </defs>
    <g id="Page-1" stroke="none" stroke-width="1" fill="none" fill-rule="evenodd">
        <g id="pitney-bowes">
            <rect id="Rectangle-4" fill="#F9F4F4" x="0" y="0" width="512" height="512" rx="40"></rect>
            <g transform="translate(70.000000, 96.000000)" fill-rule="nonzero">
                <g id="Symbol_3_" transform="translate(77.000000, 0.000000)">
                    <path d="M108.985623,0.276856468 C48.8778221,0.276856468 0.127262939,48.9427393 0.127262939,108.963673 C0.127262939,168.960457 48.8778221,217.61668 108.985623,217.61668 C169.122433,217.61668 217.853652,168.960457 217.853652,108.963673 C217.848817,48.9427393 169.122433,0.276856468 108.985623,0.276856468 Z M108.985623,215.109972 C50.2654459,215.109972 2.65109433,167.574281 2.65109433,108.949183 C2.65109433,50.3095957 50.2654459,2.78839469 108.985623,2.78839469 C167.715469,2.78839469 215.33949,50.3095957 215.33949,108.949183 C215.33949,167.574281 167.715469,215.109972 108.985623,215.109972 Z M103.116022,16.1236967 C103.116022,14.9886746 103.710718,14.3173211 104.653529,14.3173211 C106.147521,14.2545326 107.486795,14.2207235 108.980788,14.2207235 C161.386551,14.2207235 203.880716,56.598101 203.880716,108.944353 C203.880716,161.261626 161.386551,203.672813 108.980788,203.672813 C56.5943641,203.672813 14.1001992,161.261626 14.1001992,108.944353 C14.1001992,68.1270274 39.9138693,33.3953518 76.1274652,20.0455602 C77.0074218,19.7026386 77.8100195,20.1663072 78.167804,21.1854121 C78.5545981,22.1948573 78.2645025,23.0690658 77.3555364,23.4119874 C42.5343992,36.2594713 17.7022191,69.6967388 17.7022191,108.939523 C17.7022191,159.276545 58.5718488,200.074552 108.980788,200.074552 C159.404231,200.074552 200.273861,159.276545 200.273861,108.939523 C200.273861,58.5638627 159.404231,17.775516 108.980788,17.775516 C107.535145,17.775516 106.070162,17.8093252 104.624519,17.8672838 C103.672039,17.8721136 103.116022,17.1959303 103.116022,16.1236967 Z M106.311908,166.738712 C107.066157,166.767691 108.226539,166.777351 108.985623,166.777351 C140.983163,166.777351 166.908036,140.894017 166.908036,108.958843 C166.908036,77.0188387 140.978328,51.1306755 108.985623,51.1306755 C108.241044,51.1306755 107.061322,51.1403353 106.311908,51.1693146 C104.295744,51.1693146 103.116022,49.6817112 103.116022,47.3826877 C103.116022,45.0691746 104.295744,43.591231 106.311908,43.591231 C107.153186,43.5622517 108.144345,43.547762 108.985623,43.547762 C145.175044,43.547762 174.51821,72.8216719 174.51821,108.958843 C174.51821,145.081524 145.179879,174.360264 108.985623,174.360264 C108.134676,174.360264 107.153186,174.331285 106.311908,174.302306 C104.295744,174.302306 103.116022,172.800213 103.116022,170.520509 C103.116022,168.206996 104.295744,166.738712 106.311908,166.738712 L106.311908,166.738712 Z M108.985623,183.831661 C150.420939,183.831661 183.994665,150.307456 183.994665,108.958843 C183.994665,67.5812508 150.420939,34.0522156 108.985623,34.0522156 C107.936444,34.0522156 106.645518,34.0811949 105.581835,34.1150041 C104.044328,34.1150041 103.116022,32.9896418 103.116022,31.1977558 C103.116022,29.3962102 104.039493,28.2756777 105.581835,28.2756777 C106.727712,28.2370387 107.849415,28.2177192 108.985623,28.2177192 C153.665174,28.2177192 189.873935,64.3452305 189.873935,108.963673 C189.873935,153.543476 153.665174,189.695137 108.985623,189.695137 C107.85425,189.695137 106.708372,189.666158 105.581835,189.617859 C104.034658,189.617859 103.116022,188.506986 103.116022,186.695781 C103.116022,184.903895 104.029823,183.778533 105.581835,183.778533 C106.631014,183.802682 107.936444,183.831661 108.985623,183.831661 Z M77.0461012,176.726906 C78.4433948,177.3886 78.6609665,178.832734 77.9163879,180.426595 C77.1524696,182.030116 75.948573,182.682149 74.5512793,182.020456 C47.0985693,169.124673 28.1166497,141.21279 28.1166497,108.958843 C28.1166497,76.6759171 47.0695598,48.8558015 74.4545808,35.9213796 C75.8518745,35.2886652 77.186314,35.9165498 77.9308926,37.4959209 C78.694811,39.1429104 78.3466963,40.5725552 76.9494027,41.2149294 C51.5370314,53.1882049 34.0007547,79.0184095 33.9717452,108.958843 C33.9572404,138.860637 51.5805458,164.719821 77.0461012,176.726906 L77.0461012,176.726906 Z M76.925228,157.112758 C78.5981124,158.233291 78.7770047,160.121774 77.4909144,162.044067 C76.2241638,163.9567 74.3917268,164.536286 72.7188424,163.410924 C54.4041426,151.249283 43.4723748,130.876844 43.4723748,108.954013 C43.4723748,87.0215226 54.4041426,66.6297643 72.7188424,54.4777832 C74.3820569,53.3427611 76.2241638,53.9513261 77.5005842,55.8639591 C78.7770047,57.776592 78.5981124,59.6795652 76.925228,60.7759483 C60.7378957,71.5369235 51.0583738,89.5427206 51.0583738,108.954013 C51.0583738,128.331496 60.7378957,146.361443 76.925228,157.112758 L76.925228,157.112758 Z M70.2433603,137.749765 C64.1658582,129.596925 60.6798766,119.64737 60.6798766,108.968503 C60.6798766,98.5649387 63.9966358,88.552595 70.2336904,80.1582615 C71.698673,78.2504584 74.0146026,78.1780102 76.2144939,79.8732985 C78.4192202,81.5154581 78.9752367,83.7613528 77.5295938,85.6836455 C72.4916009,92.4454792 69.8275566,100.492061 69.8275566,108.963673 C69.8275566,117.425625 72.5109406,125.462547 77.5489335,132.224381 C78.9849065,134.137014 78.42889,136.373249 76.2241638,138.034728 C74.0242724,139.720356 71.698673,139.672057 70.2433603,137.749765 L70.2433603,137.749765 Z" id="pb_outer_3_" fill="url(#linearGradient-1)"></path>
                    <path d="M91.7491112,74.3575742 C87.6829385,75.4974261 85.0479038,72.5270492 85.0479038,69.324838 L85.0479038,19.9876016 C85.0479038,16.9496063 87.2864745,15.1915296 90.7337768,15.1915296 C94.181079,15.1915296 96.3954752,16.9447765 96.3954752,19.9876016 L96.3954752,61.2251272 C100.422969,60.177043 104.643859,59.5974572 108.990457,59.5974572 C136.336799,59.5974572 158.495265,81.7424625 158.495265,109.045781 C158.495265,136.33461 136.336799,158.450636 108.990457,158.450636 L107.931609,158.411997 C104.914615,158.411997 103.111187,156.175762 103.111187,152.712737 C103.111187,149.278691 104.914615,147.042456 107.931609,147.042456 C108.270053,147.042456 108.632673,147.061776 108.990457,147.061776 C129.71295,147.061776 147.026821,130.335897 147.026821,108.958843 C147.026821,87.3113155 129.326156,70.7979517 109.275718,70.7979517 C99.5913613,70.7979517 95.8394587,73.1935728 91.7491112,74.3575742 L91.7491112,74.3575742 Z M130.331821,87.6397474 C124.645948,81.9501474 117.064784,78.8493637 109.004962,78.8493637 C98.0925342,78.8493637 85.748968,84.4230466 85.0914181,89.5765298 C84.9898847,90.3782901 85.0527387,94.9715071 85.0527387,94.9715071 L85.0527387,182.841536 C85.0527387,186.256262 87.2719697,187.869442 90.7289419,187.869442 C93.9683423,187.869442 96.4003101,186.352859 96.4003101,182.841536 L96.4003101,94.3726018 C99.7460789,91.3635858 104.165201,90.1271362 108.995292,90.1271362 C119.390383,90.1271362 127.836999,98.5794283 127.836999,108.954013 C127.836999,119.314108 119.385548,127.756741 108.995292,127.756741 C108.85508,127.756741 108.023472,127.77606 107.888094,127.77606 C104.90011,127.77606 103.116022,129.973656 103.116022,133.417361 C103.116022,136.812768 104.90011,139.039343 107.888094,139.039343 C108.095996,139.039343 108.777721,139.087642 108.995292,139.087642 C117.064784,139.087642 124.645948,135.948219 130.331821,130.2393 C136.032199,124.54004 139.179736,116.986106 139.179736,108.958843 C139.174901,100.921921 136.027364,93.3341774 130.331821,87.6397474 L130.331821,87.6397474 Z" id="pb_inner_3_" fill="#3E53A4"></path>
                </g>
                <path d="M349.764597,300.684549 C351.94548,302.243476 355.678573,303.202174 359.556316,303.202174 C367.645611,303.202174 372.480272,299.061709 372.480272,292.331369 C372.480272,287.046023 369.687407,284.331101 362.140551,281.819033 C357.111168,280.190635 355.002611,278.62893 355.002611,276.186333 C355.002611,273.065701 357.661952,271.501216 361.525787,271.501216 C365.000178,271.501216 368.327137,272.384886 371.323069,274.216139 L371.323069,269.531022 C369.345253,268.038787 365.200463,266.952262 361.667655,266.952262 C354.187561,266.952262 349.631074,270.414691 349.631074,276.319717 C349.631074,280.868671 352.284852,284.058775 358.671723,286.159575 C364.788766,288.129769 367.103172,289.421928 367.103172,292.742637 C367.103172,296.335671 364.249109,298.583749 359.556316,298.583749 C355.809315,298.583749 351.875937,297.497225 349.764597,295.935519 L349.764597,300.684549 L349.764597,300.684549 Z M319.198857,281.819033 C319.813622,275.50274 323.204561,271.567908 329.257623,271.567908 C335.449772,271.567908 338.570883,274.960867 338.776731,281.819033 L319.198857,281.819033 Z M343.330437,296.135595 C340.612679,297.497225 336.259258,298.447586 332.044925,298.447586 C323.613476,298.447586 319.335163,294.448842 318.993009,286.365209 L344.011963,286.365209 C344.081506,285.414847 344.217811,283.516902 344.217811,282.766616 C344.217811,272.990672 339.252409,266.952262 329.66932,266.952262 C318.926247,266.952262 313.485167,274.827482 313.485167,285.1453 C313.485167,296.749718 319.607773,303.202174 331.366181,303.202174 C336.058973,303.202174 340.548699,302.382418 343.330437,300.759578 L343.330437,296.135595 Z M300.900583,302.382418 L310.892587,267.766461 L305.52105,267.766461 L298.31913,294.985157 L290.293815,267.766461 L284.307514,267.766461 L276.354525,295.321396 L269.216584,267.766461 L263.372152,267.766461 L273.358593,302.382418 L279.005521,302.382418 L287.300665,274.885838 L295.253654,302.382418 L300.900583,302.382418 L300.900583,302.382418 Z M244.537002,298.447586 C237.602129,298.447586 233.724386,293.156683 233.724386,285.1453 C233.724386,276.997753 237.604911,271.701292 244.537002,271.701292 C251.469094,271.701292 255.344056,276.997753 255.344056,285.003579 C255.344056,293.156683 251.402332,298.447586 244.537002,298.447586 Z M244.537002,303.202174 C255.547122,303.202174 261.057746,295.185233 261.057746,285.075829 C261.057746,274.888617 256.298192,266.955041 244.537002,266.955041 C233.524101,266.955041 228.013477,274.960867 228.013477,285.075829 C228.010695,295.257483 232.775813,303.202174 244.537002,303.202174 L244.537002,303.202174 Z M197.158436,273.540882 C199.606366,272.248723 202.121057,271.701292 205.381255,271.701292 C212.861349,271.701292 217.145226,276.655956 217.145226,283.989304 C217.145226,293.292846 212.046299,298.447586 203.141955,298.447586 C200.694026,298.447586 198.994383,298.17526 197.158436,297.497225 L197.158436,273.540882 L197.158436,273.540882 Z M191.717356,301.362585 C195.047097,302.44911 198.655011,303.202174 202.663496,303.202174 C215.239735,303.202174 222.853353,296.210624 222.853353,283.922612 C222.853353,273.32969 216.327395,266.952262 205.923694,266.952262 C202.866563,266.952262 200.009718,267.494135 197.155655,268.72238 L197.155655,251.410234 L191.714574,251.410234 L191.714574,301.362585 L191.717356,301.362585 Z M157.81353,319.961333 L164.411813,302.382418 L178.209235,267.766461 L172.228498,267.766461 L161.694055,296.071682 L151.354334,267.766461 L145.17053,267.766461 L158.970733,302.382418 L152.305688,319.961333 L157.81353,319.961333 Z M117.147299,281.819033 C117.756499,275.50274 121.158565,271.567908 127.211628,271.567908 C133.398213,271.567908 136.527669,274.960867 136.730736,281.819033 L117.147299,281.819033 Z M141.284441,296.135595 C138.563901,297.497225 134.213263,298.447586 129.998929,298.447586 C121.567481,298.447586 117.283604,294.448842 116.947013,286.365209 L141.965967,286.365209 C142.029947,285.414847 142.169034,283.516902 142.169034,282.766616 C142.169034,272.990672 137.206413,266.952262 127.620543,266.952262 C116.87747,266.952262 111.439172,274.827482 111.439172,285.1453 C111.439172,296.749718 117.558996,303.202174 129.320185,303.202174 C134.015759,303.202174 138.499921,302.382418 141.287223,300.759578 L141.287223,296.135595 L141.284441,296.135595 Z M105.589176,302.382418 L105.589176,279.712676 C105.589176,269.942289 99.6724187,266.952262 92.1283446,266.952262 C87.0294183,266.952262 80.9763559,268.244421 76.5589555,269.872818 L76.5589555,302.382418 L82.0000355,302.382418 L82.0000355,273.404719 C84.2448983,272.521049 87.7777059,271.843013 90.837618,271.843013 C97.1577274,271.843013 100.148096,274.013284 100.148096,281.613399 L100.148096,302.385197 L105.589176,302.385197 L105.589176,302.382418 Z M71.3265058,297.633387 C69.4905586,298.17526 67.5850679,298.5115 65.2038999,298.5115 C62.7559702,298.5115 60.920023,297.833464 60.920023,293.356759 L60.920023,272.315415 L70.0302158,272.315415 L70.0302158,267.766461 L60.920023,267.766461 L60.920023,259.215983 L55.5512681,259.215983 L55.5512681,267.766461 L49.770816,267.766461 L49.770816,272.315415 L55.5512681,272.315415 L55.5512681,294.376592 C55.5512681,300.617857 58.8114654,303.202174 63.9131733,303.202174 C66.7644551,303.202174 69.2151665,302.796464 71.3265058,301.982265 L71.3265058,297.633387 Z M41.1641178,261.25287 C43.1363702,261.25287 44.6997072,259.691164 44.6997072,257.723748 C44.6997072,255.753554 43.1363702,254.125156 41.1641178,254.125156 C39.1251037,254.125156 37.5617668,255.753554 37.5617668,257.723748 C37.5617668,259.691164 39.1251037,261.25287 41.1641178,261.25287 L41.1641178,261.25287 Z M43.8151144,267.766461 L38.3795978,267.766461 L38.3795978,302.382418 L43.8151144,302.382418 L43.8151144,267.766461 Z M6.06414439,273.877121 C8.37298715,272.384886 11.0267655,271.701292 14.2925262,271.701292 C21.7698386,271.701292 26.0537156,276.655956 26.0537156,283.989304 C26.0537156,293.292846 20.9547893,298.447586 11.9809017,298.447586 C9.532972,298.447586 7.83332993,298.17526 6.06692613,297.497225 L6.06692613,273.877121 L6.06414439,273.877121 Z M6.06414439,319.961333 L6.06414439,302.446331 C7.83054819,302.924291 9.7360389,303.199396 11.7055096,303.199396 C24.0814631,303.199396 31.7590607,296.207845 31.7590607,283.919833 C31.7590607,273.40194 25.1663411,266.949483 14.8349651,266.949483 C9.93910579,266.949483 4.84296129,268.441718 0.623064342,271.970839 L0.623064342,319.961333 L6.06414439,319.961333 Z" id="Wordmark_3_" fill="#4E4E4E"></path>
            </g>
        </g>
    </g>
</svg>