<svg id="Layer_1" xmlns="http://www.w3.org/2000/svg" viewBox="0 0 297.9 70.5" width="2500" height="592"><style>.st0{fill:#318dde}</style><title>Logo</title><g id="::-circle" transform="translate(62)"><path id="Fill-15" class="st0" d="M195.4 3.3c-8.7 16.7-24.7 36.8-46.1 48.5 1.3 2.7 2.7 5.3 4.7 7.4 18-12.4 35.1-33.5 44.5-54.2-.7-.3-1.7-1-3.1-1.7z"/><path id="Fill-16" class="st0" d="M194.8 3c-4.3-2-9.4-3-14.7-3-19.7 0-33.8 15.4-33.8 35.4 0 3.3.3 6.7 1 9.7 20.4-8.3 38.4-26.4 47.5-42.1"/><path id="Fill-17" class="st0" d="M159.7 64.5c5.3 3.7 12.4 6 20.1 6 19.7 0 33.8-15.4 33.8-35.4 0-13.4-5.7-23.7-14.4-29.4-10.4 25.1-23.1 43.4-39.5 58.8z"/></g><path id="_xAE_" class="st0" d="M288.2 22.1c5.3 0 9.7-4.3 9.7-9.7 0-5.3-4.3-9.7-9.7-9.7-5.3 0-9.7 4.3-9.7 9.7 0 5.3 4.4 9.7 9.7 9.7zm0-1c-5 0-8.7-4-8.7-8.7 0-4.7 3.7-8.7 8.7-8.7 5 0 8.7 4 8.7 8.7 0 4.7-3.7 8.7-8.7 8.7zm-3.7-4h2v-3.3h2l2.3 3.3h2.3l-2.7-3.7c1.3-.3 2.3-1.3 2.3-3 0-2-1.7-3-3.7-3h-4.3v9.7h-.2zm1.7-5.1V8.7h2.3c1.3 0 2 .7 2 1.7s-.7 1.7-2 1.7h-2.3z"/><path id="TIBC-------Community" class="st0" d="M22.1 69.5h7.4V10.7h22.1V4H0v6.7h22.1v58.8zm39.1 0h7.4V4h-7.4v65.5zm22.1 0h29.1c14.4 0 23.7-6.7 23.7-17.7v-.3c0-9-6.4-13.4-14-15.7 5-2.3 10.4-6.7 10.4-15v-.3c0-4.3-1.3-7.7-4.3-10.4-3.7-3.7-9.7-5.7-17.1-5.7H83.3v65.1zM125 21.4c0 7.7-6 11.7-15 11.7H90.6V10.7h20.1c9 0 14.3 4 14.3 10.7zm3.7 29.4c0 7.4-6 12-16 12H90.6v-23h20.7c11.4 0 17.4 4 17.4 11zm47.5 19.7c12 0 19.4-4.7 26.1-11.4l-5-4.7c-6.4 6-12 9.4-21.1 9.4-14.4 0-25.4-12-25.4-27.1v-.3c0-15 10.7-26.7 25.4-26.7 9 0 15 3.7 20.7 9l5-5.3C195.3 7.4 188.2 3 176.5 3c-19.4 0-33.1 15.4-33.1 33.8v.3c-.3 18.4 13.7 33.4 32.8 33.4z"/></svg>